<?xml version="1.0" encoding="UTF-8"?>
<svg id="Layer_1" data-name="Layer 1" xmlns="http://www.w3.org/2000/svg" viewBox="0 0 110.58 109.73">
  <defs>
    <style>
      .cls-1 {
        fill: none;
      }

      .cls-2 {
        fill: #6864ad;
      }
    </style>
  </defs>
  <g>
    <path class="cls-1" d="M79.03,56.43c0-3.6-2.93-6.53-6.53-6.53s-6.54,2.93-6.54,6.53,2.93,6.53,6.54,6.53,6.53-2.93,6.53-6.53Z"/>
    <circle class="cls-1" cx="56.18" cy="23.29" r="10.18" transform="translate(-3.85 13.53) rotate(-13.28)"/>
    <path class="cls-2" d="M83.03,56.43c0-5.81-4.73-10.53-10.53-10.53s-10.54,4.73-10.54,10.53,4.35,10.14,9.84,10.5c-4.6,4.88-10.45,10.86-12.91,12.49-1.66,1.1-3.32,.93-4.16,.73-.53-.13-1.52-.57-3.23-1.96-.79-.64-1.58-1.37-2.43-2.23l-3.9-3.95c-3.12-2.96-4.99-5.25-6.35-6.92-.38-.47-.72-.89-1.05-1.27-4.99-5.87-6.74-10.52-5.68-15.06,.82-3.52,3.04-6.46,6.07-8.06,3.44-1.81,7.24-1.58,11.3,.71,3.24,1.82,5.42,4.3,5.43,4.32,.36,.41,.87,.65,1.41,.67,.55,.04,1.07-.2,1.44-.6,4.17-4.39,8.24-6.43,12.09-6.06,5.61,.54,9.18,6.07,9.22,6.14,.57,.9,1.75,1.17,2.66,.6,.9-.57,1.17-1.76,.61-2.66-.18-.29-4.58-7.17-12.08-7.92-4.63-.46-9.3,1.5-13.89,5.83-1.11-1.03-2.8-2.43-4.9-3.63-5.23-2.98-10.45-3.26-15.1-.81-4.02,2.12-6.95,5.99-8.03,10.6-1.35,5.77,.72,11.63,6.5,18.43,.31,.36,.63,.76,.99,1.21,1.43,1.76,3.38,4.17,6.64,7.25l3.85,3.9c.95,.96,1.84,1.78,2.74,2.51,1.85,1.51,3.41,2.4,4.77,2.72,.55,.13,1.3,.26,2.18,.26,1.44,0,3.22-.33,5-1.52,4.58-3.04,17.55-17.32,18.5-18.37,2.15-1.93,3.51-4.72,3.51-7.83Zm-17.07,0c0-3.6,2.93-6.53,6.54-6.53s6.53,2.93,6.53,6.53-2.93,6.53-6.53,6.53-6.54-2.93-6.54-6.53Z"/>
    <path class="cls-2" d="M56.18,37.33c7.74,0,14.04-6.3,14.04-14.04s-6.3-14.04-14.04-14.04-14.04,6.3-14.04,14.04,6.3,14.04,14.04,14.04Zm0-24.22c5.61,0,10.18,4.57,10.18,10.18s-4.57,10.18-10.18,10.18-10.18-4.57-10.18-10.18,4.57-10.18,10.18-10.18Z"/>
  </g>
  <g>
    <path class="cls-2" d="M48.1,94.04c.08,.14,.12,.27,.14,.39,.01,.11,.02,.28,.02,.5v7.94c0,.66-.18,1.04-.54,1.16-.18,.06-.41,.09-.69,.09s-.5-.02-.66-.07c-.16-.05-.29-.1-.37-.17-.09-.07-.15-.16-.2-.29-.05-.16-.07-.41-.07-.74v-4.79c-.24,.3-.59,.77-1.04,1.41-.46,.64-.75,1.05-.87,1.21-.12,.16-.21,.27-.26,.34s-.16,.15-.35,.26-.39,.16-.6,.16-.41-.05-.59-.15c-.18-.1-.3-.2-.38-.29l-.11-.16c-.19-.24-.57-.75-1.13-1.52s-.87-1.19-.91-1.25v4.82c0,.22,0,.38-.02,.49-.01,.11-.06,.23-.14,.37-.14,.26-.51,.39-1.12,.39s-.94-.13-1.09-.39c-.08-.13-.12-.26-.14-.37s-.02-.29-.02-.51v-7.94c0-.22,0-.38,.02-.49s.06-.24,.14-.38c.14-.25,.52-.37,1.12-.37,.26,0,.48,.03,.66,.09s.31,.13,.36,.19l.09,.09,3.25,4.26c1.62-2.15,2.7-3.56,3.25-4.25,.16-.26,.54-.39,1.15-.39s.97,.13,1.11,.39Z"/>
    <path class="cls-2" d="M56.66,99.46c0,.59-.15,1.02-.44,1.3s-.61,.42-.97,.42h-3.39c0,.27,.16,.49,.47,.67,.31,.18,.63,.27,.94,.27,.55,0,.99-.06,1.3-.17l.16-.06c.23-.1,.42-.16,.57-.16,.3,0,.57,.21,.79,.64,.12,.26,.19,.48,.19,.66,0,.85-1.02,1.27-3.05,1.27-.71,0-1.33-.12-1.88-.36-.55-.24-.97-.56-1.28-.97-.6-.77-.9-1.64-.9-2.59,0-1.2,.39-2.16,1.17-2.88,.78-.72,1.75-1.08,2.91-1.08,1.33,0,2.3,.47,2.92,1.4,.32,.5,.49,1.04,.49,1.62Zm-3.02,.42c.36,0,.54-.15,.54-.46,0-.22-.08-.4-.25-.53-.17-.13-.41-.2-.72-.2s-.62,.13-.92,.38c-.3,.25-.46,.52-.46,.81h1.8Z"/>
    <path class="cls-2" d="M64.36,94.08c.09-.17,.23-.28,.41-.34,.18-.06,.41-.09,.68-.09s.49,.02,.66,.07c.17,.05,.29,.1,.37,.17,.08,.07,.14,.17,.18,.3,.06,.15,.09,.4,.09,.73v7.94c0,.23,0,.4-.02,.5-.01,.1-.06,.23-.14,.37-.13,.26-.51,.39-1.12,.39-.37,0-.63-.03-.77-.09-.14-.06-.26-.15-.36-.27-2.15-2.86-3.56-4.73-4.23-5.61v4.71c0,.23,0,.4-.02,.5-.01,.1-.06,.23-.14,.37-.13,.26-.51,.39-1.12,.39s-.95-.13-1.09-.39c-.08-.14-.12-.27-.14-.39s-.02-.28-.02-.5v-7.98c0-.36,.04-.63,.14-.79s.23-.28,.41-.34c.18-.06,.41-.09,.7-.09s.51,.03,.68,.08c.17,.05,.28,.11,.35,.18,.04,.03,.15,.15,.33,.37,2.01,2.74,3.36,4.54,4.03,5.42v-4.83c0-.36,.04-.63,.14-.79Z"/>
    <path class="cls-2" d="M71.24,104.1c-.96,0-1.76-.36-2.4-1.09-.64-.73-.95-1.62-.95-2.67v-2.5c0-.23,0-.4,.02-.5s.05-.23,.12-.37c.13-.26,.51-.39,1.12-.39,.67,0,1.06,.18,1.17,.54,.06,.15,.09,.4,.09,.73v2.5c0,.39,.11,.7,.34,.92,.22,.22,.53,.33,.9,.33s.68-.11,.91-.34c.23-.23,.35-.53,.35-.9v-2.53c0-.22,0-.38,.02-.49s.06-.24,.14-.38c.12-.25,.49-.37,1.1-.37s.97,.13,1.1,.39c.07,.14,.11,.27,.12,.38,.02,.11,.02,.27,.02,.49v5.06c0,.21,0,.37-.02,.48-.01,.11-.06,.23-.14,.36-.14,.25-.51,.37-1.1,.37s-.94-.11-1.07-.34c-.1-.16-.14-.36-.14-.59-.04,.07-.12,.16-.26,.29-.13,.12-.26,.23-.39,.31-.33,.21-.68,.31-1.06,.31Z"/>
  </g>
</svg>