<?xml version="1.0" encoding="UTF-8"?>
<svg id="Layer_1" data-name="Layer 1" xmlns="http://www.w3.org/2000/svg" viewBox="0 0 754.29 517.74">
  <defs>
    <style>
      .cls-1 {
        fill: none;
        stroke: #412616;
        stroke-linecap: round;
        stroke-linejoin: round;
        stroke-width: 0px;
      }

      .cls-2 {
        fill: #fff;
      }

      .cls-3 {
        fill: #b72c3a;
      }

      .cls-4 {
        fill: #b67c65;
      }

      .cls-5 {
        fill: #c5846b;
      }

      .cls-6 {
        fill: #412616;
      }

      .cls-7 {
        fill: #6cc3bd;
        opacity: .4;
      }
    </style>
  </defs>
  <path class="cls-7" d="M197.98,313.68c-.02-.13-.04-.26-.06-.39-.05-.27-.1-.54-.17-.82-.12-.53-.28-1.05-.47-1.56,0-.02-.02-.04-.03-.06,0,0,0,0,0,0-.05-.11-.1-.22-.15-.33-.12-.23-.24-.46-.38-.68-.07-.11-.15-.22-.22-.33,0,0,0-.01-.01-.01-.06-.07-.12-.13-.18-.19-.09,.24-.17,.48-.24,.74-.1,.35-.19,.7-.26,1.05-.03,.16-.06,.31-.08,.47,0,.04-.01,.07-.02,.11,0,.02,0,.02,0,.04-.07,.67-.07,1.35-.02,2.02,0,.04,.02,.21,.02,.25,.02,.12,.04,.24,.07,.36,.06,.25,.11,.47,.19,.74,.08,.26,.16,.5,.26,.77,0,.02,.02,.04,.03,.06,.05,.11,.1,.22,.16,.33,.24,.47,.51,.92,.81,1.35,.04,.06,.09,.12,.13,.18,.05,.06,.1,.13,.15,.18,.17,.19,.35,.39,.53,.59,.07,.07,.15,.14,.22,.21,0-1.62-.08-3.23-.23-4.84,0-.09-.02-.19-.03-.23Z"/>
  <path class="cls-7" d="M176.31,301.12c.08-.06,.07-.05,.02-.02,0,0,0,0,0,0,0,0-.01,0-.02,.01Z"/>
  <path class="cls-7" d="M201.19,328.24c.05,0,.1,0,.15-.01,.03,0,.12-.02,.2-.03,.09-.02,.24-.04,.29-.04l.5-.09c1.15-.25,2.28-.59,3.39-1.01-1.38-.39-2.74-.86-4.05-1.43-.12,.88-.29,1.75-.49,2.62Z"/>
  <path class="cls-7" d="M176.39,295.33s-.1-.05-.17-.08c-.06-.02-.15-.06-.18-.07-.24-.08-.47-.15-.72-.2-.13-.03-.26-.05-.39-.08-.24-.02-.44-.04-.71-.04-.25,0-.49,.02-.74,.03,0,0,0,0-.02,0l-.4,.07c-.27,.06-.53,.13-.79,.21l-.33,.12c-.23,.11-.46,.23-.68,.36l-.34,.22s-.13,.09-.21,.15c-.05,.04-.11,.08-.12,.09l-.14,.12c-.11,.1-.21,.2-.31,.29-.22,.21-.42,.43-.62,.65-.1,.11-.2,.26-.31,.38l-.06,.08c-.17,.25-.35,.5-.5,.76-.32,.52-.61,1.07-.86,1.63-.02,.04-.03,.07-.04,.1,.15,.14,.3,.28,.46,.42,.09,.07,.17,.14,.26,.22,.02,.02,.05,.04,.07,.06,.48,.35,.99,.67,1.53,.93,.11,.06,.23,.11,.35,.17l.08,.03c.27,.1,.54,.19,.83,.27,.27,.08,.54,.13,.8,.18,0,0,.01,0,.02,0,.12,.02,.28,.02,.41,.02,.26,0,.51-.01,.77-.04,0,0,0,0,.01,0,.12-.03,.24-.05,.36-.07,.27-.06,.54-.14,.81-.23,.11-.04,.22-.08,.32-.12,.49-.23,.96-.51,1.4-.82,.03-.02,.05-.04,.07-.05,.09-.08,.18-.16,.27-.24,.19-.17,.37-.36,.55-.55,.08-.07,.15-.17,.23-.26t0,0c.14-.2,.28-.41,.39-.63,.07-.11,.12-.23,.18-.34,.07-.21,.14-.41,.19-.63,0-.04,.03-.13,.04-.22,0-.04,0-.08,0-.11,.01-.2,0-.41-.01-.59,0-.04-.02-.09-.03-.13-.03-.11-.05-.22-.09-.33-.02-.07-.05-.14-.08-.21l-.04-.08c-.07-.13-.14-.26-.22-.39-.02-.03-.06-.09-.1-.15-.03-.03-.05-.06-.07-.08-.08-.1-.17-.19-.27-.28-.1-.09-.21-.16-.29-.25,.02,.02,.04,.04,.06,.06,.14,.11,.24,.26,0,0-.02-.01-.04-.03-.06-.04-.19-.13-.38-.24-.59-.35Z"/>
  <path class="cls-7" d="M193.76,319.47c-.71-1.07-1.25-2.22-1.62-3.45-.74-2.59-.46-5.24,.39-7.73,0,0,0,0,0,0-.3,.08-.59,.21-.89,.3l-.11,.05c-.13,.06-.26,.13-.39,.2-.29,.16-.58,.34-.85,.53-.02,.01-.04,.03-.06,.04-.11,.1-.22,.19-.32,.29-.23,.2-.44,.42-.65,.64-.1,.11-.2,.22-.29,.33-.03,.03-.11,.14-.16,.2-.06,.08-.12,.16-.15,.21-.07,.11-.14,.21-.21,.32-.15,.23-.29,.47-.42,.72-.13,.24-.25,.51-.35,.73,0,.02-.02,.04-.03,.07-.05,.12-.09,.24-.13,.37-.18,.53-.33,1.07-.44,1.62-.03,.17-.06,.34-.09,.5-.03,.28-.06,.55-.07,.84-.03,.57-.02,1.13,.03,1.69,.01,.17,.03,.34,.05,.51,.05,.28,.1,.54,.16,.83,.13,.55,.29,1.09,.48,1.62,.02,.06,.05,.13,.07,.19,.04,.09,.08,.19,.13,.28,.12,.26,.24,.49,.39,.75,.15,.27,.31,.53,.49,.78,.07,.12,.16,.23,.24,.34,.02,.02,.04,.05,.06,.08,.37,.46,.77,.9,1.19,1.32,.23,.22,.46,.43,.71,.63,.08,.07,.17,.14,.25,.21,.03,.02,.07,.04,.1,.07,.5,.36,1.01,.69,1.55,.99,.26,.15,.53,.28,.79,.41,.14,.07,.29,.14,.43,.2,.01,0,.03,.01,.04,.02,.58,.21,1.15,.41,1.74,.58,.48,.14,.97,.24,1.46,.33,.18-.65,.34-1.32,.46-1.99,.07-.37,.13-.74,.19-1.11,.02-.07,.07-.39,.02-.12-.06,.28,0-.05,0-.12,.02-.17,.04-.35,.06-.52,.02-.2,.04-.41,.06-.61-.6-.41-1.19-.85-1.75-1.32-.99-.82-1.84-1.77-2.55-2.84Z"/>
  <path class="cls-7" d="M192.03,290.24s.02-.02,.04-.03h0s-.03,.02-.04,.03Z"/>
  <path class="cls-7" d="M218.45,293.59c-.04-.07-.07-.15-.11-.22-.23-.46-.49-.91-.78-1.34,.01,.11,.03,.21,.04,.32,.02,.2,.03,.41,.05,.61,.28,.19,.54,.4,.8,.63Z"/>
  <path class="cls-7" d="M217.43,298.45c-.45,2.7-1.5,5.25-3.52,7.11,.02,0,.03,0,.05-.01,.08-.03,.17-.06,.25-.09,0,0,.03-.02,.06-.03,.49-.23,.96-.5,1.4-.8,.03-.02,.11-.08,.18-.13,.05-.04,.11-.09,.14-.11,.2-.17,.38-.34,.58-.54,.21-.2,.4-.41,.59-.62,.08-.1,.15-.21,.24-.29-.02,.02-.03,.02-.04,.04-.12,.13-.28,.27,0,0,.02-.02,.04-.05,.06-.07,.31-.44,.59-.9,.84-1.37,.06-.12,.12-.24,.17-.36-.03-.1-.05-.21-.08-.31-.08-.29-.17-.58-.27-.88-.05-.13-.1-.28-.16-.42-.03-.08-.2-.48-.07-.19,.13,.29-.07-.17-.13-.29-.06-.12-.12-.24-.17-.36-.04-.09-.09-.17-.13-.26Z"/>
  <path class="cls-7" d="M227.63,309.81s.02-.05,.03-.08c0,.01-.01,.03-.02,.04,0,.01,0,.02-.01,.03Z"/>
  <path class="cls-7" d="M227.67,309.72s.02-.04,.02-.06c-.01,.03-.02,.06-.03,.09,0,0,0-.02,.01-.02Z"/>
  <path class="cls-7" d="M176.26,301.15s-.07,.06-.1,.08c.05-.04,.09-.08,.15-.11-.01,0-.03,.02-.05,.03,0,0,0,0,0,0Z"/>
  <path class="cls-7" d="M211.84,319.8c-.07,0-.09,0,.07,.01h.03s-.06,0-.09-.01c0,0,0,0,0,0Z"/>
  <path class="cls-7" d="M206.18,308.34c-.58-.02-1.17-.06-1.75-.16-2.25-.34-4.31-1.28-6.18-2.54-.04,.06-.07,.11-.11,.17,1.9,1.52,2.95,3.83,3.42,6.19,.56,2.82,.56,5.77,.49,8.64,0,.28-.02,.55-.03,.83,.42,.22,.83,.43,1.26,.62,.13,.06,.28,.12,.42,.18-.06-.03-.11-.06-.15-.08-.1-.05-.15-.08,0,0,.07,.04,.17,.08,.22,.1,.25,.1,.5,.2,.75,.29,1.96,.69,3.96,1.21,5.99,1.58,.22-.18,.44-.37,.66-.56-.7-.11-1.39-.26-2.08-.47-.25-.07-.47-.19-.67-.35-.2-.16-.36-.35-.49-.57-.13-.22-.21-.46-.24-.72-.03-.25-.02-.51,.04-.75,.07-.25,.18-.47,.35-.67,.16-.2,.35-.37,.57-.49,.23-.13,.46-.21,.72-.24,.25-.03,.5-.02,.75,.05,.56,.17,1.14,.31,1.72,.41,.06,0,.16,.01,.21,.03l.26,.03c.29,.03,.59,.05,.88,.05,.45,.01,.89,0,1.34-.04,.65-.92,1.25-1.88,1.77-2.89,.16-.31,.32-.63,.47-.95,.07-.13,.13-.28,.19-.42l.09-.21c.24-.59,.46-1.18,.66-1.79,.42-1.28,.74-2.58,.96-3.9,.03-.19,.05-.36,.09-.59,0,0,0,0,0-.02,0-.02,0-.04,0-.06,.04-.3,.07-.62,.1-.91,.03-.41,.06-.82,.07-1.23-1.4,1.28-3.12,2.23-4.96,2.59-2.68,.53-5.37,.03-7.79-1.16Z"/>
  <path class="cls-7" d="M212.07,319.84s-.01,0-.03,0h-.11s.1,0,.14,0Z"/>
  <path class="cls-7" d="M160.89,285.29s0,0,0-.02c0-.02,0-.04,0-.06,0,.02,0,.05,0,.07Z"/>
  <path class="cls-7" d="M190.13,337.32s-.03,0-.06,.02c0,0-.02,0-.02,.01,.03-.01,.06-.03,.08-.03Z"/>
  <path class="cls-7" d="M166.19,314.75c.02,.11,0,.06,0-.02,0,0,0,.02,0,.02Z"/>
  <path class="cls-7" d="M190,337.38s.03-.02,.05-.02c-.01,0-.03,.01-.04,.02-.1,.05-.21,.1,0,0Z"/>
  <path class="cls-7" d="M192.25,336.07l.07-.06c-.09,.06-.29,.23-.07,.06Z"/>
  <path class="cls-7" d="M195.66,311.83s.02-.09,.02-.15c0,.05-.01,.1-.02,.15Z"/>
  <path class="cls-7" d="M192.12,290.13l-.05,.07s.08-.07,.11-.11c.04-.06,0-.06-.07,.04Z"/>
  <path class="cls-7" d="M194.1,293.96c-.62-1.35-1.17-2.73-1.65-4.12-.08,.09-.17,.17-.26,.25-.02,.03-.06,.06-.12,.12l-.08,.12c-.07,.12-.12,.24-.19,.36-.02,.07-.05,.14-.07,.21-.03,.11-.05,.22-.08,.33,0,.05,0,.1-.01,.15-.02,.17,0,.33,0,.49,0,.04,.02,.08,.02,.12,.03,.15,.07,.29,.11,.44,.04,.15,.09,.29,.14,.44,.01,.05,.04,.1,.06,.15,0,0,0,0,0,0,.3,.62,.64,1.22,1.03,1.79,.12,.17,.24,.34,.37,.51,0,0,.02,.02,.03,.04-.04-.07,.05-.02,.09,.12,.2,.25,.4,.49,.6,.74,.45,.53,.9,1.06,1.35,1.58,.6,.7,1.24,1.36,1.9,2.01-1.24-1.86-2.32-3.81-3.24-5.85Z"/>
  <path class="cls-7" d="M199.33,272.14c-.08,.03-.09,.05-.08,.06,.06-.03,.12-.06,.18-.1l-.1,.04Z"/>
  <path class="cls-7" d="M166.21,298.49s-.05-.06-.07-.09c.01,.02,.03,.03,.04,.05l.03,.04Z"/>
  <path class="cls-7" d="M183.36,320.33c-1.25-5.37,.51-11.61,5.38-14.62,1.68-1.04,3.74-1.6,5.7-1.4,.24-.39,.5-.77,.77-1.14-.77-.73-1.51-1.47-2.21-2.27-1.06-1.19-2.12-2.42-3.04-3.68-.92-1.26-1.78-2.72-2.07-4.27-.33-1.72-.09-3.54,.99-4.97,.68-.86,1.49-1.56,2.39-2.13-.06-.25-.13-.49-.19-.74-.39-1.66-.65-3.34-.8-5.03-.17-1.72,.05-3.38,.65-5,1.78-4.4,6.1-6.8,10.62-7.68-.5-.32-1.02-.6-1.54-.87-.29-.13-.58-.29-.87-.42l-.31-.14s.04,.02-.17-.07c-1.14-.46-2.31-.84-3.5-1.13-.62-.15-1.25-.29-1.87-.4-.33-.06-.65-.11-.98-.16h-.04s-.43-.06-.43-.06c-1.27-.14-2.54-.21-3.82-.21-1.29,0-2.58,.05-3.85,.17-.55,.05-1.09,.12-1.64,.18-.03,0-.34,.04-.42,.05l-.43,.07c-.31,.05-.62,.1-.93,.15-2.44,.41-4.82,1.02-7.16,1.83-.31,.11-.62,.22-.91,.34l-.39,.16s-.14,.06-.22,.09c-.04,.02-.08,.04-.1,.04l-.22,.1-.39,.18c-.27,.13-.54,.26-.82,.39-1.09,.54-2.14,1.15-3.14,1.84-.24,.17-.48,.34-.72,.52,0,0-.01,0-.02,.01,.09-.06,.16-.08-.15,.12l-.22,.18c-.46,.39-.92,.79-1.34,1.22-.41,.41-.8,.85-1.17,1.3l-.15,.18-.19,.26c-.17,.24-.34,.48-.49,.73-.32,.51-.61,1.04-.87,1.59-.07,.17-.14,.34-.23,.5-.02,.05-.04,.11-.06,.16-.12,.31-.23,.63-.34,.95-.2,.64-.36,1.29-.49,1.95-.03,.17-.06,.35-.09,.53-.02,.06-.02,.12-.03,.18-.03,.3-.06,.6-.08,.9-.09,1.41-.06,2.81,.11,4.21,0,.03,0,.07,.01,.1-.01-.13,0-.22,.02,.16,.02,.13,.04,.26,.06,.38,.06,.34,.12,.68,.19,1.02,.14,.68,.3,1.36,.48,2.02,.37,1.36,.83,2.69,1.36,4,.04,.09,.08,.19,.11,.28,.05,.12,.1,.25,.16,.36,.12,.27,.25,.55,.37,.82,.26,.55,.52,1.07,.83,1.62,.19,.34,.41,.68,.61,1.01,1.47-2.58,3.58-4.68,6.57-5.46,2.43-.63,5.33-.38,7.39,1.13,1.21,.86,2.08,1.99,2.6,3.38,.45,1.29,.49,2.6,.11,3.91-.7,2.47-2.71,4.56-5.01,5.62-1.29,.62-2.65,.95-4.08,.99-1.48-.03-2.88-.36-4.2-1.01-.68-.3-1.32-.68-1.93-1.11-.07,.31-.14,.62-.2,.94-.05,.31-.11,.63-.15,.94v.08s-.01,.01-.02,.03c-.02,.15-.04,.29-.05,.44-.07,.63-.13,1.27-.16,1.9-.07,1.29-.06,2.59,.02,3.88,.04,.65,.1,1.31,.18,1.96,0,.08,.02,.16,.03,.24,.02,.12,.04,.25,.06,.37,.05,.29,.09,.59,.15,.88,.23,1.27,.53,2.53,.91,3.77,.19,.63,.4,1.25,.62,1.87,.11,.32,.24,.63,.36,.95,.05,.14,.11,.28,.17,.41l.07,.17s-.02-.06-.03-.08c0,0,0-.02-.01-.03-.04-.09-.12-.3,.01,.03,.51,1.17,1.09,2.32,1.72,3.44,.65,1.12,1.36,2.2,2.13,3.24l.19,.25s0,0,0,.01c.07,.08,.13,.17,.2,.25,.19,.23,.38,.46,.57,.69,.42,.51,.86,.99,1.32,1.46,.46,.48,.94,.92,1.44,1.36,.24,.21,.49,.41,.74,.62l.08,.06s.02,.01,.04,.03l.36,.27c1.05,.77,2.17,1.44,3.34,2.01,.17,.08,.34,.16,.51,.24l.07,.03c.27,.11,.54,.21,.81,.31,.6,.21,1.22,.39,1.84,.53,.31,.07,.59,.12,.92,.17,.02,0,.04,0,.07,0,.13,.02,.28,.04,.42,.04,.62,.05,1.25,.05,1.87,0l.48-.05c.08,0,.11,0,.13,0,.26-.04,.49-.09,.79-.16,.32-.08,.64-.17,.95-.27l.4-.15s.07-.03,.1-.04c.02-.01,.04-.02,.06-.03,.52-.24,1.02-.51,1.51-.81,.15-.09,.3-.19,.45-.29,.09-.06,.21-.2,.32-.24l.05-.04c.13-.1,.25-.21,.37-.31,.45-.4,.87-.82,1.27-1.28,.12-.14,.24-.27,.35-.41,.05-.06,.36-.41,.15-.18-.21,.23,.09-.13,.14-.19,.11-.13,.2-.26,.29-.4,.31-.46,.6-.94,.87-1.44-.39-.08-.78-.17-1.17-.28-5.35-1.52-10.01-5.58-11.3-11.13Z"/>
  <path class="cls-7" d="M199.46,272.08s-.02,.01-.03,.02h.02s0-.01,.01-.02Z"/>
  <path class="cls-7" d="M198.83,265.96s-.08-.04-.12-.06c0,0-.02,0-.03,0l.07,.03,.08,.04Z"/>
  <path class="cls-7" d="M166.58,270.09l-.06,.05s.08-.06,.12-.09c-.02,.01-.04,.03-.06,.04Z"/>
  <path class="cls-7" d="M166.46,270.18s.01,0,.02-.01l.04-.03s-.04,.03-.06,.04Z"/>
  <path class="cls-7" d="M198.58,265.85s.05,.03,.08,.04c0,0,.01,0,.02,0l-.1-.04Z"/>
  <path class="cls-7" d="M160.87,285.18s0,.03,0,.04c0-.03,0-.07-.01-.11,0,.02,0,.04,0,.07Z"/>
  <path class="cls-7" d="M193.49,295.49s0,0,0-.01c0,0,0,0,0,0,0,0,.01,.02,.01,.02Z"/>
  <path class="cls-7" d="M208.26,271.1s-.06-.01-.1-.02c-.01,0-.03,0-.04,0-.2-.03-.06,.07,.14,.02Z"/>
  <path class="cls-7" d="M210.81,303.15c-.07,.06-.11,.1,0,0h0Z"/>
  <path class="cls-7" d="M193.44,295.42s.03,.03,.04,.05c-.01-.04-.05-.08-.08-.11,0,.02,.02,.03,.04,.06Z"/>
  <path class="cls-7" d="M210.95,303.02c.09-.09,.19-.18,.29-.27,.17-.16,.34-.33,.49-.51,.09-.1,.17-.19,.25-.29,0,0,0-.01,.01-.02,.15-.2,.28-.41,.41-.63,.14-.23,.27-.47,.38-.71,.05-.11,.1-.22,.15-.32,.19-.48,.35-.98,.47-1.48,.12-.49,.22-1,.3-1.5l.02-.14c.02-.13,.04-.25,.04-.38,.02-.27,.04-.55,.06-.82,0-.14,0-.28,0-.42-.29-.02-.57-.03-.86-.02-.07,0-.15,.01-.22,.02-.02,0-.04,0-.07,.01-.17,.04-.34,.06-.51,.1-.36,.08-.7,.19-1.07,.31-.37,.12-.74,.26-1.1,.41l-.17,.07-.35,.15c-.63,.28-1.25,.59-1.86,.91-1.2,.64-2.35,1.37-3.45,2.16-.14,.1-.29,.21-.43,.32-.06,.04-.12,.09-.18,.14-.23,.18-.45,.36-.68,.55-.02,.02-.05,.04-.07,.06,.06,.07,.12,.14,.18,.21,.45,.5,.91,.98,1.4,1.45,.25,.24,.5,.47,.77,.7l.35,.29c.11,.09,.55,.39,.11,.09,.5,.32,.97,.68,1.47,1,.11,0,.21,0,.32,0h.14c.11-.07,.2-.07,.22-.06,.06,0,.13-.02,.19-.02,.33-.06,.66-.15,.98-.25,.13-.05,.28-.09,.42-.15,.04-.01,.07-.03,.1-.04,0,0,0,0,.02,0,.5-.25,.94-.57,1.41-.85l.08-.07Z"/>
  <path class="cls-7" d="M207.51,304.46s.05-.01,.08-.02h-.05s-.02,.01-.03,.02Z"/>
  <path class="cls-7" d="M229.21,295.46s0,.02,0,.03c0,.02,0,.03,0,.05,0,.02,0,.04,.01,.07,0-.05-.02-.1-.02-.15Z"/>
  <path class="cls-7" d="M213.61,291.17c-.08-.53-.16-1.07-.26-1.6-.1-.54-.21-1.09-.32-1.63-.1-.06-.21-.12-.31-.18-.28-.15-.55-.29-.85-.42-.12-.06-.25-.11-.37-.17,.11,.05,.17,.08,.2,.1,.03,.01,.04,.02,.03,.02,0,0,0,0-.03-.02-.07-.03-.22-.11-.28-.13-1.22-.46-2.48-.79-3.78-.99-.01,0-.01,0-.02,0l-.17-.02c-.17-.02-.34-.05-.5-.05-.36-.03-.72-.06-1.07-.06-.74-.02-1.49,0-2.23,.04-.38,.03-.77,.06-1.15,.11l-.21,.03c-.28,.04,.37-.05,.09,0-.17,.03-.34,.05-.5,.08-.72,.12-1.43,.27-2.13,.44-1.3,.33-2.58,.74-3.83,1.23,.31,.97,.65,1.94,1.04,2.89l.1,.25c.06,.15,.13,.3,.2,.45,.13,.31,.27,.61,.41,.9,.29,.64,.61,1.27,.94,1.89,.59,1.11,1.24,2.2,1.92,3.25,1.66-1.37,3.44-2.56,5.35-3.58,1.41-.75,2.87-1.38,4.38-1.88,1.11-.35,2.27-.55,3.42-.51-.01-.12-.03-.25-.04-.38,0-.02,0-.05,0-.07Z"/>
  <path class="cls-7" d="M229.28,296.02c-.02-.16-.04-.33-.06-.49-.03-.2-.04-.23-.03-.2-.09-.65-.2-1.29-.33-1.93-.25-1.28-.57-2.55-.96-3.8-.2-.65-.42-1.29-.65-1.93-.12-.33-.25-.65-.38-.98l-.07-.18s-.01-.03-.02-.05c-.05-.11-.1-.22-.14-.33-.53-1.19-1.13-2.36-1.8-3.48-.35-.58-.71-1.15-1.09-1.7-.2-.29-.4-.55-.61-.84l-.11-.15c-.08-.1-.16-.19-.23-.28-.83-1.04-1.73-2.01-2.7-2.91-.48-.45-.99-.88-1.51-1.29,0,0,0,0,0,0l-.11-.08c-.12-.09-.28-.19-.41-.29-.24-.18-.49-.34-.74-.51-1.09-.72-2.24-1.35-3.42-1.88l-.28-.12-.32-.13c-.3-.12-.61-.23-.9-.33-.41-.14-.84-.27-1.26-.39,.91,1.42,1.69,2.93,2.36,4.5,1.13,2.67,2.02,5.41,2.7,8.23,.09,.36,.17,.71,.25,1.07,1.88,1.3,3.45,2.93,4.69,4.9,.71,1.14,1.24,2.35,1.57,3.65,.34,1.3,.47,2.62,.4,3.96-.08,1.19-.33,2.34-.71,3.46,.25,1.35,.36,2.73,.38,4.11,.03,2.99-.4,5.91-1.31,8.76-.43,1.34-.96,2.64-1.57,3.9,.75-.39,1.48-.81,2.17-1.31,.13-.1,.26-.2,.4-.3l.07-.05c.23-.19,.46-.38,.68-.59,.45-.4,.87-.82,1.28-1.26,.21-.23,.42-.47,.62-.72,.07-.08,.13-.16,.2-.25,.03-.04,.06-.08,.09-.12,.39-.53,.75-1.09,1.09-1.67s.64-1.16,.92-1.75c.07-.16,.14-.32,.21-.47,.1-.31,.09-.23,.05-.13,0,0,0-.02,0-.02,.13-.3,.24-.61,.35-.93,.45-1.28,.8-2.58,1.03-3.91,.06-.34,.11-.68,.17-1.03,0-.04,.01-.07,.01-.11,.02-.16,.04-.31,.05-.47,.07-.69,.12-1.38,.15-2.07,.05-1.37,.02-2.73-.1-4.1-.03-.34-.06-.67-.09-1Z"/>
  <path class="cls-7" d="M377.14,5.44C215.77,5.44,84.96,119.33,84.96,259.82s130.82,254.38,292.19,254.38,292.19-113.89,292.19-254.38S538.52,5.44,377.14,5.44ZM232.97,304.95c-.44,2.97-1.37,5.78-2.79,8.43-1.41,2.57-3.28,4.75-5.61,6.52-2.34,1.79-5.12,3.06-8.02,3.6-.37,.45-.75,.9-1.16,1.32,.37,.03,.74,.07,1.1,.1,1.56,.1,3.13,.15,4.71,.13,1.58-.02,3.15-.1,4.71-.26,.41-.04,.82-.08,1.23-.13l.54-.07c.07,0,.15-.02,.22-.03,.78-.11,1.55-.23,2.32-.37h-.02c1.08-.2,2.04,.28,2.39,1.35,.3,.93-.36,2.21-1.36,2.39-6.59,1.19-13.19,1.29-19.81,.3-.13,.09-.25,.18-.38,.27-3.31,2.23-7.22,3.55-11.18,3.62-2.08,4.68-5.97,8.78-11.19,9.63-5.96,.96-11.75-1.86-16.04-5.85-4.17-3.87-7.17-9.05-8.93-14.44-.88-2.74-1.43-5.55-1.64-8.42-.21-2.87-.08-5.73,.4-8.57,.18-1.09,.44-2.23,.78-3.37-.33-.41-.65-.83-.94-1.25-1.63-2.33-2.8-4.97-3.75-7.63-2.08-5.87-2.71-12.47-.06-18.26,2.31-5.03,7.01-8.41,11.98-10.5,5.17-2.13,10.54-3.27,16.12-3.41,5.55-.17,11.28,.79,16.16,3.55,1.7,.96,3.23,2.14,4.59,3.47,5.2,.39,10.18,2.56,14.22,5.82,4.56,3.69,7.73,8.9,9.64,14.39,1,2.83,1.64,5.74,1.93,8.73,.29,2.99,.23,5.97-.2,8.94Zm277.23-26.58c-.34,2.88-.87,5.36-1.58,7.66-1.21,3.94-2.51,7.04-4.09,9.74-1.74,3.07-3.66,5.83-5.61,8.22-2.48,3.07-5.52,6.11-9.18,9.24,.87,1.92,1.61,3.88,2.29,5.77,5.12,11.19,8,23.1,8.43,35.26,.16,4.5,0,9.09-.53,13.55-3.94,52.72-46.76,93.99-99.7,95.91l-.96,.03c-3.98,.44-7.93,.75-11.81,.93l-3.24,.12c-6,.17-12.07,.08-17.92-.3-3.35-.22-6.64-.53-9.86-.93-4.68-.16-9.77-.71-15.5-1.67-7.29-1.27-14.17-3.44-19.94-5.36-15.75-5.33-28.25-11.6-38.3-19.23-7.35-5.58-12.43-10.33-16.62-15.29-4.99-6.02-9.12-12.4-12.25-19.01-3.66-7.75-6.05-14.79-7.26-21.33-.84-4.56-1.33-8.99-1.55-13.15-.25-2.26-.53-4.71-.68-7.6-.12-2.14-.09-4.5-.03-7.38,.03-.68,.06-1.4,.09-2.14-.16-4.4,.06-9.09,.56-13.83,.71-6.64,2.54-13.8,5.67-21.8,.93-2.39,1.92-4.56,2.91-6.57-1.46-1.3-2.85-2.67-4.16-3.97-2.17-2.23-4.25-4.87-6.2-7.78-1.74-2.57-3.26-5.55-4.81-9.4-.87-2.23-1.58-4.68-2.14-7.54-.56-2.82-1.15-6.57-1.12-10.51,0-3.19,.4-6.54,1.05-9.95,.71-3.57,2.11-7.07,3.32-9.71,1.3-2.91,3.22-5.64,5.05-8.19,1.71-2.29,3.57-4.28,5.58-6.11,2.91-2.54,6.42-5.43,10.51-7.44,1.86-.93,4.09-1.95,6.54-2.67,2.17-.59,4.59-.96,7.72-1.3,.81-.06,1.52-.09,2.26-.12,3.1-.12,6.45,.09,10.79,.9,4.59,.62,8.68,2.11,12.87,3.81,3.57,1.33,6.79,3.07,9.67,5.12,1.86,1.3,3.78,2.7,5.52,4.31,1.71,1.55,3.23,3.41,4.65,5.12l.47,.56c2.14,2.51,3.69,5.36,4.84,8.78,2.39-.78,4.78-1.49,7.13-2.08,8.34-2.05,15.29-3.07,21.77-3.32,.34,0,.62-.03,.96-.03h.28c.99,0,1.95-.03,2.98,0,1.24-.09,2.48-.22,3.72-.25,1.02-.06,2.02-.09,3.04-.12,7.41-.28,13.06-.16,18.39,.5,.74,.06,1.46,.16,2.2,.25l.34,.03c.59,.03,1.21,.06,1.77,.09,4.37,.34,8.62,1.02,12.71,1.89,5.46,1.15,11.16,2.79,17.89,5.21,.87-2.57,2.08-4.93,3.54-6.95l.43-.59,.43-.59c7.81-13.49,21.77-21.89,37.3-22.45,4.22-.16,8.4,.28,12.5,1.3,.74,.06,1.36,.22,1.92,.31,2.45,.47,4.68,1.33,6.73,2.17,1.54,.6,3.02,1.35,4.43,2.16,.39-2.02,.56-4.16,.41-6.42-.77-11.68-8.54-18.17-13.49-21.15-23.43,17.61-57.49,28.69-95.4,28.69-70.66,0-127.94-38.5-127.94-86s56.95-85.77,127.32-85.99h1.25c70.37,.23,127.32,38.64,127.32,85.99,0,13.74-3.02,25.15-11.55,36.67,1.42,2.05,8.22,18.06,6.8,32.22-.7,6.99-4.64,13.71-9.44,19.49,.44,.33,.88,.66,1.3,.98,2.2,1.67,4.12,3.54,6.02,5.71,2.02,2.33,4.12,4.9,5.64,7.78,1.33,2.54,3.04,5.92,4,9.43,.96,3.29,1.55,6.61,1.83,9.8,.31,3.88,0,7.66-.34,10.54Z"/>
  <path class="cls-7" d="M207.65,304.43c.09,0,.12-.02,.11-.03-.06,0-.11,.02-.17,.04h.06Z"/>
  <path class="cls-7" d="M206.75,272.12s-.08-.1-.12-.15c0,0,.01,.01,.02,.02,.03,.04,.07,.09,.1,.12Z"/>
  <path class="cls-7" d="M199.55,272.05l-.11,.04c-.11,.1-.19,.12-.2,.11-.18,.09-.36,.18-.55,.24-.56,.28-1.09,.6-1.6,.95-.13,.08-.54,.46-.13,.08-.1,.09-.22,.18-.32,.26-.22,.19-.44,.39-.64,.6-.19,.19-.37,.4-.54,.6,0,0,0,.02-.04,.07-.09,.13-.18,.25-.26,.39-.17,.26-.32,.53-.46,.81-.02,.05-.04,.1-.07,.15-.03,.08-.06,.17-.09,.25-.12,.37-.22,.74-.29,1.13-.02,.1-.04,.19-.05,.29,0,0,0-.02,0-.03-.02,.16-.04,.32-.04,.48-.03,.75,0,1.51,.08,2.26,.01,.12,.07,.83,.03,.31,.01,.17,.05,.35,.08,.52,.06,.35,.12,.7,.18,1.04,.1,.53,.21,1.05,.33,1.57,.75-.28,1.5-.54,2.26-.78,3.14-1.01,6.35-1.41,9.64-1.21,1.77,.11,3.46,.46,5.09,1.02-.46-1.63-1-3.24-1.63-4.83-.03-.12-.08-.22-.14-.33,0-.01,0-.02-.01-.03-.04-.08-.07-.16-.1-.24-.12-.27-.24-.54-.37-.81-.27-.57-.56-1.14-.86-1.69-.62-1.14-1.32-2.23-2.1-3.27-.01-.01-.02-.02-.02-.03,0-.01-.02-.02-.02-.03-.01-.01-.02-.03-.03-.04-.11-.12-.2-.23-.29-.34-.18-.22-.36-.43-.55-.64-.82,0-1.63,.04-2.44,.13-.09,.01-.14,.03-.15,.03,.08,0,.15-.01,.23-.03-.09,.05-.27,.06-.23,.03,0,0-.02,0-.02,0-.15,.02-.29,.05-.44,.07-.31,.05-.62,.12-.93,.19-.59,.14-1.18,.31-1.75,.51-.16,.05-.3,.11-.45,.17Z"/>
  <path class="cls-7" d="M206.62,271.96s0,0,0,0c-.03-.04-.03-.03,0,0Z"/>
  <path class="cls-6" d="M203.38,271.07c-.07,.02-.15,.03-.23,.03-.04,.02,.14,.02,.23-.03Z"/>
  <path class="cls-6" d="M176.26,301.15s.03-.02,.05-.03c0,0,.01,0,.02-.01,0,0,0,0,0,0-.02,.01-.04,.03-.07,.05,0,0,0,0,0,0Z"/>
  <path class="cls-6" d="M206.63,271.97s0,0,0,0c0,0,.01,.02,.02,.03,0,0-.01-.02-.02-.02Z"/>
  <path class="cls-6" d="M199.43,272.1c-.06,.04-.12,.07-.18,.1,.01,.01,.09-.01,.2-.11h-.02Z"/>
  <path class="cls-6" d="M177.03,295.72c.24,.26,.14,.11,0,0h0Z"/>
  <path class="cls-6" d="M192.08,290.2h0c.06-.05,.1-.08,.12-.11-.04,.04-.07,.08-.11,.11Z"/>
  <path class="cls-6" d="M207.54,304.44h.05c.06-.02,.11-.03,.17-.04-.01-.01-.11-.02-.22,.04Z"/>
  <path class="cls-6" d="M217.36,302.96c-.28,.27-.12,.13,0,0h0Z"/>
  <path class="cls-6" d="M193.4,295.36s.07,.07,.08,.11c0,0,0,0,0,0-.04-.14-.13-.19-.09-.12Z"/>
  <path class="cls-1" d="M211.69,287.27s.04,.02,.03,.02"/>
  <path class="cls-6" d="M227.64,309.78s.01-.03,.02-.04c.01-.03,.02-.06,.03-.09,.03-.1,.04-.18-.05,.13Z"/>
  <path class="cls-6" d="M231.23,287.27c-1.91-5.49-5.08-10.7-9.64-14.39-4.05-3.27-9.03-5.43-14.22-5.82-1.37-1.33-2.9-2.51-4.59-3.47-4.88-2.76-10.61-3.72-16.16-3.55-5.58,.15-10.96,1.28-16.12,3.41-4.97,2.09-9.67,5.47-11.98,10.5-2.65,5.79-2.02,12.39,.06,18.26,.94,2.67,2.12,5.31,3.75,7.63,.3,.43,.62,.84,.94,1.25-.34,1.13-.6,2.27-.78,3.37-.48,2.84-.61,5.7-.4,8.57,.21,2.87,.76,5.68,1.64,8.42,1.75,5.39,4.76,10.57,8.93,14.44,4.29,3.99,10.08,6.81,16.04,5.85,5.22-.85,9.1-4.95,11.19-9.63,3.95-.07,7.87-1.39,11.18-3.62,.13-.09,.25-.18,.38-.27,6.62,.98,13.22,.88,19.81-.3,1-.18,1.66-1.46,1.36-2.39-.35-1.07-1.31-1.55-2.39-1.36h.02c-.77,.15-1.55,.27-2.32,.38-.07,0-.15,.02-.22,.03l-.54,.07c-.41,.05-.82,.09-1.23,.13-1.56,.15-3.13,.24-4.71,.26-1.58,.02-3.15-.02-4.71-.13-.37-.02-.74-.07-1.1-.1,.4-.43,.78-.87,1.16-1.32,2.9-.54,5.68-1.81,8.02-3.6,2.33-1.77,4.21-3.95,5.61-6.52,1.42-2.64,2.36-5.46,2.79-8.43,.43-2.97,.49-5.95,.2-8.94-.29-2.99-.94-5.9-1.93-8.73Zm-23.11-16.19s.03,0,.04,0c.03,0,.06,.01,.1,.02-.2,.05-.34-.05-.14-.02Zm-5.44,.1c.15-.03,.29-.05,.44-.07,0,0,.02,0,.02,0,.02,0,.06-.02,.15-.03,.81-.1,1.63-.14,2.44-.13,.19,.21,.37,.42,.55,.64,.09,.11,.18,.23,.29,.34,.01,.01,.02,.03,.03,.04-.02-.03-.02-.03,0,0,.04,.05,.07,.1,.12,.15-.03-.03-.07-.08-.1-.12,0,0,.01,.02,.02,.03,.78,1.04,1.48,2.13,2.1,3.27,.29,.56,.59,1.12,.86,1.69,.13,.27,.25,.54,.37,.81,.04,.08,.07,.16,.1,.24,0,.01,0,.02,.01,.03,.05,.11,.11,.21,.14,.33,.62,1.59,1.16,3.2,1.63,4.83-1.63-.56-3.33-.91-5.09-1.02-3.29-.2-6.5,.2-9.64,1.21-.77,.23-1.52,.49-2.26,.78-.12-.52-.23-1.04-.33-1.57-.06-.35-.13-.7-.18-1.04-.03-.17-.07-.35-.08-.52,.04,.52-.02-.2-.03-.31-.08-.75-.11-1.5-.08-2.26,0-.16,.02-.32,.04-.48,0,.01,0,.03,0,.03,0-.1,.02-.2,.05-.29,.07-.38,.17-.76,.29-1.13,.03-.08,.06-.17,.09-.25,.02-.05,.05-.1,.07-.15,.14-.28,.29-.55,.46-.81,.08-.13,.17-.26,.26-.39,.03-.05,.04-.06,.04-.07,.17-.21,.35-.41,.54-.6,.21-.21,.42-.41,.64-.6,.1-.09,.22-.17,.32-.26-.42,.38,0,0,.13-.08,.51-.36,1.04-.67,1.6-.95,.19-.06,.37-.15,.55-.24,0,0,0-.03,.08-.06l.1-.04s.02-.01,.03-.02c0,0,0,0-.01,0l.11-.04c.15-.06,.29-.11,.45-.17,.58-.2,1.16-.37,1.75-.51,.31-.07,.62-.14,.93-.19Zm6.78,32.76s0,0-.02,0c-.03,.01-.07,.03-.1,.04-.14,.05-.29,.1-.42,.15-.32,.1-.65,.18-.98,.25-.06,0-.13,0-.19,.02,0,.01-.02,.03-.11,.03h-.06s-.05,.02-.08,.03c0,0,.02,0,.03-.01h-.14c-.11,.02-.21,.02-.32,.02-.5-.31-.97-.68-1.47-1,.44,.29,0,0-.11-.09l-.35-.29c-.26-.23-.52-.46-.77-.7-.49-.46-.96-.95-1.4-1.45-.06-.07-.12-.14-.18-.21,.02-.02,.05-.04,.07-.06,.23-.19,.45-.37,.68-.55,.06-.05,.12-.1,.18-.14,.14-.1,.29-.21,.43-.32,1.1-.8,2.25-1.52,3.45-2.16,.61-.32,1.23-.63,1.86-.91l.35-.15,.17-.07c.36-.15,.73-.29,1.1-.41,.38-.12,.71-.23,1.07-.31,.17-.04,.34-.07,.51-.1,.03,0,.05,0,.07-.01,.07,0,.15-.02,.22-.02,.29-.01,.57,0,.86,.02,0,.14,0,.28,0,.42-.02,.27-.04,.55-.06,.82,0,.13-.02,.26-.04,.38l-.02,.14c-.08,.5-.17,1.01-.3,1.5-.13,.51-.28,1-.47,1.48-.05,.1-.1,.21-.15,.32-.12,.24-.25,.48-.38,.71-.13,.21-.26,.42-.41,.63,0,0,0,.01-.01,.02-.08,.1-.16,.2-.25,.29-.16,.18-.32,.35-.49,.51-.1,.1-.2,.19-.29,.27l-.08,.07c-.47,.28-.91,.61-1.41,.85Zm1.35-.8c-.11,.1-.07,.06,0,0h0Zm-.57-11.02c-1.51,.5-2.97,1.13-4.38,1.88-1.91,1.01-3.7,2.21-5.35,3.58-.68-1.06-1.33-2.14-1.92-3.25-.33-.62-.65-1.25-.94-1.89-.14-.29-.28-.59-.41-.9-.07-.15-.13-.3-.2-.45l-.1-.25c-.39-.95-.72-1.92-1.04-2.89,1.25-.49,2.53-.9,3.83-1.23,.7-.17,1.41-.32,2.13-.44,.17-.03,.34-.05,.5-.08,.28-.05-.37,.04-.09,0l.21-.03c.38-.05,.76-.08,1.15-.11,.74-.05,1.49-.07,2.23-.04,.36,0,.72,.03,1.07,.06,.17,0,.34,.03,.5,.05l.17,.02s0,0,.02,0c1.29,.2,2.55,.53,3.78,.99,.06,.02,.21,.09,.28,.13-.03-.02-.09-.05-.2-.1,.12,.06,.25,.11,.37,.17,.29,.13,.57,.27,.85,.42,.11,.06,.21,.12,.31,.18,.11,.54,.22,1.08,.32,1.63,.1,.53,.18,1.06,.26,1.6,0,.02,0,.05,0,.07,.02,.12,.03,.25,.04,.38-1.15-.04-2.32,.16-3.42,.51Zm-14.8,5.67c-.46-.52-.91-1.05-1.35-1.58-.2-.24-.4-.49-.6-.74,0,0,0,0,0,.01,0,0-.01-.02-.01-.02-.01-.02-.03-.03-.04-.05-.03-.03-.03-.05-.04-.06-.01-.01-.03-.03-.03-.04-.13-.17-.25-.34-.37-.51-.39-.57-.73-1.17-1.03-1.79,0,0,0,0,0,0-.02-.05-.04-.1-.06-.15-.05-.15-.1-.29-.14-.44-.04-.14-.08-.29-.11-.44,0-.04-.01-.08-.02-.12,0-.17-.02-.33,0-.49,0-.05,0-.1,.01-.15,.02-.11,.04-.22,.08-.33,.02-.07,.04-.14,.07-.21,.07-.12,.12-.24,.19-.36l.08-.12s-.02,.02-.04,.03c.01-.01,.03-.03,.04-.04l.05-.07c.06-.1,.11-.1,.07-.04,.09-.08,.17-.16,.26-.25,.48,1.4,1.03,2.77,1.65,4.12,.92,2.04,2,3.99,3.24,5.85-.65-.65-1.29-1.32-1.9-2.01Zm.24,13.88c0,.06-.02,.13-.02,.15,.01-.05,.02-.1,.02-.15Zm-29.5,3.07s0-.02,0-.02c.01,.08,.02,.14,0,.02Zm26.06,21.32c-.22,.18-.02,0,.07-.06l-.07,.06Zm2.71-2.89c-.09,.14-.18,.27-.29,.4-.05,.07-.35,.42-.14,.19,.21-.23-.1,.12-.15,.18-.12,.14-.23,.28-.35,.41-.4,.45-.82,.88-1.27,1.28-.12,.1-.24,.21-.37,.31l-.05,.04c-.1,.03-.23,.17-.32,.24-.15,.1-.29,.2-.45,.29-.48,.31-.99,.58-1.51,.81,.03-.01,.05-.02,.06-.02-.03,0-.06,.02-.08,.03-.02,0-.03,.02-.05,.02-.2,.09-.1,.04,0,0-.03,.01-.07,.02-.1,.04l-.4,.15c-.31,.1-.63,.19-.95,.27-.3,.07-.53,.12-.79,.16-.02,0-.06,0-.13,0l-.48,.05c-.63,.05-1.25,.05-1.87,0-.14,0-.29-.03-.42-.04-.03,0-.05,0-.07,0-.33-.05-.61-.11-.92-.17-.62-.14-1.24-.32-1.84-.53-.27-.1-.54-.2-.81-.31l-.07-.03c-.17-.08-.35-.16-.51-.24-1.17-.57-2.29-1.24-3.34-2.01l-.36-.27s-.03-.02-.04-.03l-.08-.06c-.25-.2-.5-.41-.74-.62-.5-.43-.98-.88-1.44-1.36-.46-.48-.9-.95-1.32-1.46-.19-.23-.38-.46-.57-.69-.07-.08-.13-.16-.2-.25,0,0,0,0,0-.01l-.19-.25c-.77-1.04-1.48-2.12-2.13-3.24-.64-1.11-1.21-2.26-1.72-3.44,.01,.03,.02,.05,.03,.08l-.07-.17c-.06-.14-.11-.28-.17-.41-.13-.31-.25-.63-.36-.95-.23-.62-.43-1.24-.62-1.87-.37-1.24-.67-2.5-.91-3.77-.05-.29-.1-.59-.15-.88-.02-.12-.04-.25-.06-.37,0-.08-.02-.16-.03-.24-.08-.65-.14-1.31-.18-1.96-.08-1.29-.09-2.59-.02-3.88,.03-.64,.08-1.27,.16-1.9,.01-.15,.03-.29,.05-.44,0-.02,0-.02,0-.03v-.08c.06-.31,.11-.63,.17-.94,.05-.32,.13-.63,.2-.94,.61,.43,1.25,.8,1.93,1.11,1.33,.64,2.73,.98,4.2,1.01,1.43-.04,2.79-.37,4.08-.99,2.3-1.07,4.31-3.15,5.01-5.62,.38-1.31,.34-2.62-.11-3.91-.52-1.4-1.39-2.52-2.6-3.38-2.07-1.5-4.97-1.75-7.39-1.13-2.99,.78-5.1,2.88-6.57,5.46-.21-.34-.42-.67-.61-1.01-.31-.55-.57-1.07-.83-1.62-.13-.27-.25-.54-.37-.82-.06-.12-.11-.24-.16-.36-.04-.09-.08-.19-.11-.28-.53-1.31-.99-2.64-1.36-4-.18-.67-.34-1.34-.48-2.02-.07-.34-.13-.68-.19-1.02-.02-.13-.04-.26-.06-.38,0,0,0,0,0,.02,0-.02,0-.05,0-.07,0-.01,0-.03,0-.04,0-.02,0-.04,0-.07,0-.03,0-.06-.01-.1-.17-1.4-.21-2.8-.11-4.21,.02-.3,.05-.6,.08-.9,0-.06,.01-.12,.03-.18,.03-.18,.06-.36,.09-.53,.12-.66,.29-1.31,.49-1.95,.1-.32,.21-.64,.34-.95,.02-.05,.04-.1,.06-.16,.08-.16,.16-.33,.23-.5,.26-.55,.55-1.08,.87-1.59,.16-.25,.32-.49,.49-.73l.19-.26,.15-.18c.37-.45,.76-.89,1.17-1.3,.42-.43,.87-.83,1.34-1.22l.22-.18s-.01,0-.02,.01c.02-.01,.04-.03,.06-.04l.06-.05s.04-.03,.06-.04c0,0,.01,0,.02-.01,.24-.18,.48-.35,.72-.52,1.01-.69,2.05-1.3,3.14-1.84,.27-.13,.54-.26,.82-.39l.39-.18,.22-.1s.06-.03,.1-.04c.08-.03,.18-.07,.22-.09l.39-.16c.29-.12,.6-.23,.91-.34,2.34-.81,4.72-1.42,7.16-1.83,.31-.05,.62-.1,.93-.15l.43-.07c.09-.01,.4-.05,.42-.05,.55-.07,1.09-.13,1.64-.18,1.28-.12,2.57-.17,3.85-.17,1.28,0,2.55,.07,3.82,.21l.43,.05h.04c.33,.05,.65,.11,.98,.16,.63,.11,1.25,.24,1.87,.4,1.19,.3,2.36,.67,3.5,1.13-.03-.01-.05-.02-.08-.04l.1,.04s.02,0,.03,0c.04,.02,.09,.04,.12,.06l.31,.14c.29,.14,.58,.29,.87,.42,.53,.27,1.04,.55,1.54,.87-4.51,.88-8.84,3.28-10.62,7.68-.6,1.62-.81,3.28-.65,5,.14,1.7,.41,3.37,.8,5.03,.06,.25,.13,.49,.19,.74-.91,.57-1.71,1.27-2.39,2.13-1.09,1.43-1.32,3.25-.99,4.97,.29,1.55,1.14,3.01,2.07,4.27,.92,1.26,1.99,2.49,3.04,3.68,.7,.8,1.44,1.55,2.21,2.27-.27,.37-.52,.75-.77,1.14-1.96-.19-4.02,.36-5.7,1.4-4.86,3.02-6.63,9.25-5.38,14.62,1.29,5.56,5.95,9.61,11.3,11.13,.39,.11,.78,.2,1.17,.28-.27,.49-.56,.97-.87,1.44Zm-28.82-34.79s.05,.06,.07,.09l-.03-.04s-.03-.03-.04-.05Zm10.84-2.74c.08,.09,.19,.17,.29,.25,.1,.09,.18,.18,.27,.28,.02,.02,.04,.05,.07,.08,.04,.05,.08,.12,.1,.15,.08,.13,.16,.25,.22,.39l.04,.08c.03,.07,.06,.14,.08,.21,.04,.11,.06,.22,.09,.33,.01,.04,.02,.08,.03,.13,.01,.19,.02,.4,.01,.59,0,.02,0,.06,0,.11-.01,.08-.03,.18-.04,.22-.05,.21-.12,.42-.19,.63-.06,.12-.11,.23-.18,.34-.12,.21-.25,.42-.39,.63t0,0c-.08,.09-.15,.18-.23,.26-.17,.19-.36,.38-.55,.55-.09,.08-.18,.16-.27,.24,.05-.03,.06-.04-.02,.02-.05,.04-.1,.07-.15,.11,.02-.02,.06-.05,.1-.08-.44,.32-.91,.59-1.4,.82-.11,.04-.22,.09-.32,.12-.27,.09-.54,.17-.81,.23-.12,.03-.24,.05-.36,.07,0,0,0,0-.01,0-.26,.02-.51,.04-.77,.04-.14,0-.29,0-.41-.02,0,0-.01,0-.02,0-.27-.06-.54-.11-.8-.18-.29-.08-.56-.17-.83-.27l-.08-.03c-.12-.06-.24-.11-.35-.17-.53-.27-1.04-.58-1.53-.93-.03-.02-.05-.04-.07-.06-.09-.07-.18-.14-.26-.22-.16-.14-.31-.28-.46-.42,.01-.03,.03-.07,.04-.1,.25-.56,.54-1.1,.86-1.63,.16-.26,.33-.51,.5-.76l.06-.08c.11-.12,.21-.26,.31-.38,.2-.23,.41-.45,.62-.65,.1-.09,.2-.19,.31-.29l.14-.12s.07-.05,.12-.09c.08-.06,.19-.14,.21-.15l.34-.22c.22-.13,.45-.25,.68-.36l.33-.12c.26-.08,.52-.16,.79-.21l.4-.07s0,0,.02,0c.25-.02,.49-.04,.74-.03,.27,0,.47,.02,.71,.04,.13,.02,.26,.05,.39,.08,.24,.05,.48,.12,.72,.2,.04,.01,.12,.04,.18,.07,.07,.03,.14,.07,.17,.08,.2,.1,.4,.22,.59,.35,.02,.01,.04,.03,.06,.04-.02-.02-.03-.03-.06-.06Zm21.01,28.59c-.02,.17-.04,.35-.06,.52,0,.07-.06,.39,0,.12,.06-.27,0,.05-.02,.12-.06,.37-.12,.74-.19,1.11-.13,.67-.28,1.33-.46,1.99-.49-.09-.98-.2-1.46-.33-.6-.17-1.16-.37-1.74-.58-.01,0-.03-.01-.04-.02-.14-.06-.29-.13-.43-.2-.27-.13-.53-.27-.79-.41-.53-.3-1.05-.63-1.55-.99-.03-.02-.06-.05-.1-.07-.09-.07-.17-.14-.25-.21-.24-.2-.48-.41-.71-.63-.42-.41-.82-.85-1.19-1.32-.02-.03-.04-.05-.06-.08-.08-.11-.16-.23-.24-.34-.17-.26-.34-.52-.49-.78-.15-.27-.27-.5-.39-.75-.05-.09-.09-.19-.13-.28-.02-.06-.05-.13-.07-.19-.2-.53-.36-1.07-.48-1.62-.07-.29-.12-.56-.16-.83-.02-.17-.04-.34-.05-.51-.05-.57-.06-1.13-.03-1.69,.01-.29,.04-.56,.07-.84,.03-.16,.05-.33,.09-.5,.11-.55,.26-1.09,.44-1.62,.04-.12,.08-.25,.13-.37,0-.02,.02-.04,.03-.07,.1-.22,.22-.49,.35-.73,.13-.25,.27-.49,.42-.72,.07-.11,.14-.22,.21-.32,.03-.04,.09-.13,.15-.21,.05-.06,.13-.17,.16-.2,.09-.11,.19-.23,.29-.33,.21-.22,.42-.44,.65-.64,.1-.09,.21-.18,.32-.29,.02-.02,.04-.03,.06-.04,.27-.2,.56-.37,.85-.53,.13-.07,.26-.14,.39-.2l.11-.05c.3-.08,.58-.22,.89-.3,0,0,0,0,0,0-.85,2.49-1.13,5.14-.39,7.73,.37,1.23,.91,2.38,1.62,3.45s1.56,2.02,2.55,2.84c.56,.48,1.15,.92,1.75,1.32-.02,.21-.03,.41-.06,.61Zm.02-5.7c-.18-.19-.36-.39-.53-.59-.05-.06-.1-.12-.15-.18-.05-.06-.09-.12-.13-.18-.3-.43-.58-.88-.81-1.35-.06-.11-.11-.22-.16-.33,0-.02-.02-.04-.03-.06-.1-.28-.19-.51-.26-.77-.08-.28-.14-.49-.19-.74-.02-.12-.05-.23-.07-.36,0-.04-.02-.2-.02-.25-.06-.67-.05-1.35,.02-2.02,0-.02,0-.03,0-.04,0-.04,.01-.07,.02-.11,.02-.15,.05-.31,.08-.47,.07-.35,.16-.7,.26-1.05,.08-.26,.16-.5,.24-.74,.06,.06,.13,.12,.18,.19,0,0,0,0,.01,.01,.07,.11,.15,.22,.22,.33,.14,.22,.26,.45,.38,.68,.05,.11,.1,.22,.15,.33,0,0,0,0,0,0,0,.02,.02,.04,.03,.06,.19,.51,.35,1.03,.47,1.56,.06,.27,.12,.54,.17,.82,.02,.13,.04,.26,.06,.39,0,.04,.02,.14,.03,.23,.15,1.61,.22,3.23,.23,4.84-.07-.07-.15-.13-.22-.21Zm4.32,9.52l-.5,.09s-.2,.02-.29,.04c-.08,.01-.17,.02-.2,.03-.05,0-.1,0-.15,.01,.2-.86,.37-1.74,.49-2.62,1.31,.58,2.66,1.05,4.05,1.43-1.1,.42-2.23,.77-3.39,1.01Zm16.53-19.92c-.03,.29-.06,.61-.1,.91,0,.02,0,.04,0,.06,0,0,0,0,0,.02-.04,.22-.06,.39-.09,.59-.22,1.32-.54,2.62-.96,3.9-.2,.61-.42,1.2-.66,1.79l-.09,.21c-.06,.14-.13,.29-.19,.42-.15,.32-.3,.63-.47,.95-.52,1.01-1.12,1.96-1.77,2.89-.44,.03-.89,.05-1.34,.04-.29,0-.59-.02-.88-.05l-.26-.03s.02,0,.03,0c-.05-.01-.09-.01-.14-.02h-.03c-.15-.02-.13-.02-.07-.01-.58-.1-1.15-.23-1.72-.41-.25-.07-.5-.08-.75-.05-.26,.03-.49,.12-.72,.24-.22,.13-.41,.29-.57,.49-.16,.2-.27,.43-.35,.67-.06,.25-.08,.5-.04,.75,.03,.25,.12,.49,.24,.72,.13,.22,.29,.41,.49,.57,.2,.16,.42,.28,.67,.35,.68,.21,1.38,.36,2.08,.47-.21,.19-.43,.38-.66,.56-2.04-.37-4.03-.89-5.99-1.58-.25-.09-.5-.19-.75-.29-.05-.02-.15-.07-.22-.1,.04,.02,.08,.04,.15,.08-.13-.07-.29-.12-.42-.18-.43-.19-.85-.41-1.26-.62,.01-.28,.02-.55,.03-.83,.06-2.87,.06-5.81-.49-8.64-.47-2.37-1.52-4.67-3.42-6.19,.04-.06,.07-.11,.11-.17,1.87,1.26,3.93,2.2,6.18,2.54,.58,.1,1.17,.14,1.75,.16,2.41,1.19,5.1,1.69,7.79,1.16,1.84-.36,3.57-1.31,4.96-2.59-.02,.41-.04,.82-.07,1.23Zm-1.13-9.08c.05,.12,.26,.59,.13,.29-.14-.29,.04,.12,.07,.19,.05,.14,.1,.29,.16,.42,.1,.29,.18,.59,.27,.88,.03,.1,.05,.21,.08,.31-.06,.12-.11,.24-.17,.36-.25,.48-.52,.93-.84,1.37-.02,.02-.04,.05-.06,.07,.01-.01,.02-.02,.04-.04-.09,.09-.16,.19-.24,.29-.18,.21-.38,.42-.59,.62-.21,.2-.38,.37-.58,.54-.02,.02-.08,.07-.14,.11-.07,.05-.15,.11-.18,.13-.45,.31-.91,.57-1.4,.8-.04,.02-.05,.03-.06,.03-.08,.03-.17,.06-.25,.09-.02,0-.03,0-.05,.01,2.01-1.85,3.06-4.41,3.52-7.11,.05,.09,.09,.17,.13,.26,.06,.12,.12,.24,.17,.36Zm-.17-7.03c.28,.43,.55,.87,.78,1.34,.04,.07,.07,.15,.11,.22-.25-.22-.52-.43-.8-.63-.01-.21-.03-.41-.05-.61-.01-.11-.03-.21-.04-.32Zm11.9,9.08c-.03,.69-.08,1.39-.15,2.07-.02,.15-.03,.31-.05,.47,0,.04,0,.07-.01,.11-.05,.34-.1,.69-.17,1.03-.24,1.33-.58,2.63-1.03,3.91-.11,.31-.23,.62-.35,.93,0,0,0,.02,0,.02,0,.02-.02,.04-.02,.06,0,0,0,.02-.01,.02-.01,.03-.02,.05-.03,.08,0-.01,0-.02,.01-.03-.07,.16-.14,.32-.21,.47-.28,.6-.59,1.18-.92,1.75s-.7,1.13-1.09,1.67c-.03,.04-.06,.08-.09,.12-.06,.08-.13,.16-.2,.25-.2,.25-.41,.49-.62,.72-.41,.44-.83,.86-1.28,1.26-.23,.2-.45,.39-.68,.59l-.07,.05c-.13,.1-.27,.2-.4,.3-.69,.49-1.42,.92-2.17,1.31,.62-1.26,1.15-2.56,1.57-3.9,.91-2.85,1.34-5.77,1.31-8.76-.02-1.38-.13-2.76-.38-4.11,.39-1.12,.63-2.27,.71-3.46,.07-1.34-.07-2.66-.4-3.96-.34-1.3-.86-2.51-1.57-3.65-1.24-1.97-2.81-3.6-4.69-4.9-.08-.36-.16-.71-.25-1.07-.67-2.82-1.57-5.56-2.7-8.23-.67-1.56-1.45-3.07-2.36-4.5,.42,.12,.84,.25,1.26,.39,.29,.1,.6,.22,.9,.33l.32,.13,.28,.12c1.19,.53,2.33,1.16,3.42,1.88,.25,.17,.5,.33,.74,.51,.14,.1,.29,.2,.41,.29l.11,.08s0,0,0,0c.52,.42,1.03,.84,1.51,1.29,.97,.9,1.87,1.87,2.7,2.91,.07,.09,.15,.19,.23,.28l.11,.15c.21,.29,.41,.56,.61,.84,.38,.55,.74,1.12,1.09,1.7,.67,1.12,1.27,2.28,1.8,3.48,.05,.11,.1,.22,.14,.33,0,.02,.01,.03,.02,.05l.07,.18c.13,.32,.26,.65,.38,.98,.23,.63,.45,1.28,.65,1.93,.38,1.25,.7,2.52,.96,3.8,.13,.64,.23,1.29,.33,1.93,0-.03,0,0,.03,.2,0-.02,0-.03,0-.05,0,0,0-.02,0-.03,0,.05,.01,.1,.02,.15,0-.03,0-.05-.01-.07,.02,.16,.04,.33,.06,.49,.03,.34,.07,.67,.09,1,.12,1.36,.15,2.73,.1,4.1Z"/>
  <path class="cls-6" d="M203.55,322.2c-.15-.08-.1-.05,0,0h0Z"/>
  <path class="cls-6" d="M211.84,319.8s.06,0,.09,.01h.11s-.15,0-.21-.01c0,0,0,0,0,0Z"/>
  <path class="cls-6" d="M198.83,265.96l-.08-.04-.07-.03s-.01,0-.02,0c.21,.1,.22,.1,.17,.07Z"/>
  <path class="cls-6" d="M166.63,270.05s-.08,.06-.12,.09l-.04,.03c.31-.2,.24-.18,.15-.12Z"/>
  <path class="cls-6" d="M190.05,337.35s.02,0,.02-.01c-.02,0-.04,.02-.06,.03,.01,0,.03-.01,.04-.02Z"/>
  <path class="cls-6" d="M168.47,323s0,.02,.01,.03c-.13-.33-.05-.12-.01-.03Z"/>
  <path class="cls-6" d="M160.87,285.11s.01,.07,.01,.11c0,.02,0,.04,0,.06-.01-.38-.03-.29-.02-.16Z"/>
  <polygon class="cls-2" points="313.77 186.85 304.27 176.42 304.27 186.85 313.77 186.85"/>
  <polygon class="cls-2" points="332.07 150.92 311.1 150.92 320.48 161.22 332.07 150.92"/>
  <polygon class="cls-2" points="304.27 150.92 304.27 154.62 308.33 150.92 304.27 150.92"/>
  <path class="cls-2" d="M501.19,214.64c1.41-14.15-5.38-30.17-6.8-32.22,8.53-11.52,11.55-22.93,11.55-36.67,0-47.36-56.95-85.77-127.32-85.99h-1.25c-70.37,.23-127.32,38.64-127.32,85.99s57.28,86,127.94,86c37.91,0,71.97-11.08,95.4-28.69,4.95,2.98,12.72,9.47,13.49,21.15,.15,2.25-.02,4.39-.41,6.42,1.9,1.09,3.67,2.31,5.28,3.5,4.81-5.78,8.74-12.5,9.44-19.49Zm-151.08-89.57c.24-1.19,.53-2.36,.9-3.51,.75-2.36,1.74-4.62,2.98-6.77,1.24-2.15,2.69-4.14,4.35-5.97,1.68-1.85,3.61-3.51,5.95-4.45,.55-.23,1.12-.4,1.7-.51,.58-.11,1.17-.16,1.76-.15,.59,0,1.18,.08,1.76,.21s1.14,.32,1.68,.56c2.22,1.04,3.46,3.27,3.95,5.59,.54,2.55,.57,5.24,.76,7.83l.32,4.29c.04,.61,.03,1.26,.19,1.84,.03,.1,.21,.41,.15,.33,.02,.02,.04,.05,.05,.07,.03,.01,.05,.02,.08,.04,.02,.01,.05,.02,.07,.03,.07,.02,.18,.04,.18,.04,.1,0,.21,0,.32,0h.1c.13-.03,.25-.06,.38-.1,.38-.1,.73-.25,1.07-.44,1.1-.6,2.07-1.43,3.08-2.17,2.33-1.72,4.64-3.47,7-5.14,1.15-.81,2.5-1.14,3.79-.44,.44,.27,.85,.59,1.21,.96,.17,.16,.34,.32,.51,.48,.12,.12,.25,.22,.41,.28,.03,.01,.06,.03,.08,.05,.03,0,.06,0,.09,.02,.04,.01,.09,.03,.13,.03-.05-.01,.17-.01,.31-.01,.02-.02,.31-.07,.4-.1,.09-.03,.19-.07,.28-.1h.02l.06-.03c.75-.36,1.42-.81,2.18-1.18,.77-.38,1.59-.69,2.47-.61,1.21,.12,2.08,.93,2.59,2,.45,.92,.73,1.47,1.46,2.07,0,0,.22,.16,.25,.18,.09,.06,.18,.12,.28,.17,.18,.11,.38,.21,.58,.31l.1,.05c.09,.04,.18,.07,.27,.1,.19,.07,.38,.13,.59,.19,1.79,.51,3.68,.5,5.65,.37,2.52-.18,5.05-.5,7.58-.68,2.71-.19,5.43-.33,8.14-.38,10.91-.2,21.94,.91,32.33,4.35,.16,.05,.31,.13,.45,.23,.13,.11,.24,.23,.33,.38,.08,.15,.14,.31,.16,.48,.02,.17,.01,.34-.03,.5-.18,.65-.93,1.12-1.59,.9-1.25-.41-2.51-.79-3.78-1.15-10.31-2.83-21.08-3.47-31.73-2.99-2.68,.12-5.35,.32-8.02,.56-2.13,.2-4.27,.49-6.42,.43-1.98-.06-4.04-.37-5.79-1.36-.87-.49-1.6-1.14-2.19-1.94-.3-.42-.55-.86-.76-1.33-.12-.26-.25-.51-.41-.75l-.03-.03s-.06-.05-.09-.07l-.04-.02-.06-.02c-.06,0-.12,0-.18,0h-.05c-.15,.07-.31,.1-.46,.16h-.02l-.03,.02-.2,.1c-.74,.38-1.43,.84-2.18,1.19-.92,.43-1.84,.71-2.88,.55-1.04-.16-1.81-.86-2.55-1.56-.1-.1-.2-.19-.31-.28l-.1-.08c-.07-.05-.15-.1-.23-.15-.05-.03-.11-.06-.17-.08-.42,.07,.13-.1-.33,.05-.21,.09-.4,.2-.58,.33-1.14,.77-2.23,1.63-3.33,2.44l-3.48,2.55c-1.04,.76-2.05,1.62-3.17,2.27-1.85,1.09-4.53,1.74-5.98-.32-.75-1.08-.68-2.55-.78-3.8-.11-1.43-.21-2.87-.32-4.29s-.21-2.83-.32-4.25c-.06-1.07-.21-2.13-.45-3.18-.5-1.96-1.63-3.4-3.6-3.85-2-.45-4.09,.32-5.82,1.53-1.84,1.29-3.41,3.1-4.75,4.89-1.43,1.91-2.62,3.96-3.59,6.14-.97,2.18-1.69,4.44-2.16,6.78-.14,.69-.96,1.08-1.59,.9-.71-.19-1.04-.91-.91-1.59Zm-49.29-30.64h42.81v.86l5.11,5.61-5.11,4.54v31.83h-42.81v-42.84Zm42.81,95.89h-22.22l-1.39,1.27-1.06,.97-2.03-2.23h-16.1v-42.84h35.15l7.92-7.03,5.56,6.1-5.82,5.17v8.64l5.1,5.6-5.1,4.53v19.83Zm126.09-18.09c-.38,.64-1.14,.77-1.77,.47-1.16-.56-2.52-.5-3.77-.36-1.35,.15-2.7,.45-4.04,.65-3.02,.47-6.05,.87-9.08,1.19-10.71,1.14-21.5,1.42-32.27,1.7-5.25,.14-10.58,.14-15.7-1.2-2.32-.61-4.68-1.44-7.06-.67-2.06,.66-3.75,2.18-5.34,3.6-.78,.7-2.28,.28-2.21-.92,.06-1.08-.41-2-1.33-2.7-.44-.34-.93-.59-1.47-.74-.53-.16-1.08-.21-1.63-.16-2.66,.31-4.56,2.81-5.55,5.14-.25,.6-1.08,.75-1.62,.53-.15-.06-.27-.14-.39-.25-.11-.11-.21-.23-.27-.37-.07-.14-.11-.29-.13-.45-.01-.16,0-.31,.04-.46,.7-2.28,1.08-4.62,1.14-7,.05-2.14-.08-4.37-.79-6.39-.26-.78-.67-1.48-1.21-2.1-.55-.62-1.19-1.11-1.93-1.47-1.44-.71-3.12-.9-4.7-.83-3.44,.14-6.75,1.54-9.48,3.6-6.06,4.56-8.73,12.24-9.14,19.59,0,.17-.04,.34-.1,.49-.07,.16-.16,.3-.28,.42-.12,.12-.26,.21-.42,.28s-.32,.1-.49,.1c-.67,0-1.33-.6-1.3-1.3,.27-4.91,1.39-9.8,3.76-14.14,.97-1.8,2.16-3.44,3.56-4.93,1.4-1.49,2.97-2.77,4.71-3.85,3.28-1.99,7.31-3.22,11.17-2.79,2.01,.23,3.93,.84,5.55,2.11,1.65,1.3,2.63,3.23,3.13,5.25,.61,2.63,.76,5.29,.46,7.98,.64-.52,1.34-.93,2.11-1.23,.77-.3,1.56-.47,2.39-.52,2.57-.11,5.27,1.46,6.33,3.79,1.5-1.23,3.13-2.32,5.01-2.85,3-.85,5.91,.22,8.82,.92,5.18,1.25,10.56,1.05,15.85,.9,5.53-.15,11.06-.31,16.58-.59,5.56-.28,11.11-.69,16.64-1.35,2.73-.32,5.44-.72,8.15-1.18,2.57-.44,5.16-.85,7.61,.33,.63,.3,.8,1.21,.46,1.77Z"/>
  <polygon class="cls-2" points="340.17 173.54 325.32 186.73 325.19 186.85 340.17 186.85 340.17 173.54"/>
  <polygon class="cls-2" points="320 115.45 339.8 97.88 304.27 97.88 304.27 108.59 309.45 103.87 320 115.45"/>
  <polygon class="cls-2" points="326.04 167.32 320.74 172.16 319.68 173.13 304.27 156.22 304.27 173.38 309.12 168.95 319.76 180.63 340.17 162.5 340.17 154.77 326.04 167.32"/>
  <polygon class="cls-2" points="320.26 126.31 319.21 127.27 304.27 110.88 304.27 133.81 340.17 133.81 340.17 108.5 325.52 121.51 320.26 126.31"/>
  <polygon class="cls-6" points="343.62 105.43 340.17 108.5 340.17 133.81 304.27 133.81 304.27 110.88 303.13 109.63 304.27 108.59 304.27 97.88 339.8 97.88 343.22 94.84 343.62 95.28 343.62 94.42 300.82 94.42 300.82 137.26 343.62 137.26 343.62 105.43"/>
  <polygon class="cls-6" points="304.27 186.85 304.27 176.42 302.75 174.76 304.27 173.38 304.27 156.22 303.47 155.35 304.27 154.62 304.27 150.92 308.33 150.92 309.84 149.54 311.1 150.92 332.07 150.92 335.97 147.46 300.82 147.46 300.82 190.31 316.92 190.31 313.77 186.85 304.27 186.85"/>
  <polygon class="cls-6" points="340.17 186.85 325.19 186.85 321.4 190.31 343.62 190.31 343.62 170.48 340.17 173.54 340.17 186.85"/>
  <polygon class="cls-6" points="340.17 162.5 343.17 159.84 343.62 160.35 343.62 151.71 340.17 154.77 340.17 162.5"/>
  <path class="cls-6" d="M351.02,126.66c.64,.18,1.46-.22,1.59-.9,.47-2.34,1.19-4.6,2.16-6.78,.97-2.18,2.17-4.23,3.59-6.14,1.34-1.79,2.91-3.6,4.75-4.89,1.73-1.21,3.82-1.98,5.82-1.53,1.97,.44,3.1,1.89,3.6,3.85,.24,1.05,.39,2.11,.45,3.18,.11,1.42,.2,2.83,.32,4.25s.21,2.86,.32,4.29c.09,1.25,.02,2.72,.78,3.8,1.45,2.06,4.13,1.42,5.98,.32,1.11-.66,2.13-1.51,3.17-2.27l3.48-2.55c1.1-.81,2.19-1.67,3.33-2.44,.18-.14,.37-.25,.58-.33,.45-.15-.09,.02,.33-.05,.06,.02,.12,.05,.17,.08,.08,.05,.16,.1,.23,.15l.1,.08c.1,.09,.2,.19,.31,.28,.74,.7,1.51,1.4,2.55,1.56,1.04,.16,1.96-.12,2.88-.55,.75-.35,1.44-.81,2.18-1.19l.2-.1,.03-.02h.02c.15-.05,.31-.08,.46-.14h.03s.02-.01,.02-.01c.06,0,.12,0,.18,0l.06,.02,.04,.02s.06,.05,.09,.07l.03,.03c.15,.24,.29,.49,.41,.75,.21,.47,.46,.91,.76,1.33,.59,.8,1.32,1.45,2.19,1.94,1.75,.99,3.81,1.3,5.79,1.36,2.15,.06,4.28-.23,6.42-.43,2.67-.25,5.35-.44,8.02-.56,10.65-.49,21.42,.15,31.73,2.99,1.27,.35,2.53,.73,3.78,1.15,.66,.22,1.41-.25,1.59-.9,.04-.16,.05-.33,.03-.5-.02-.17-.08-.33-.16-.48-.08-.15-.19-.28-.33-.38-.13-.11-.28-.18-.45-.23-10.4-3.44-21.43-4.55-32.33-4.35-2.72,.05-5.43,.18-8.14,.38-2.53,.19-5.06,.5-7.58,.68-1.97,.13-3.86,.14-5.65-.37-.2-.06-.39-.12-.59-.19-.09-.03-.18-.06-.27-.1l-.1-.05c-.2-.1-.41-.2-.58-.31-.09-.05-.18-.11-.28-.17-.03-.02-.24-.18-.25-.18-.73-.61-1.01-1.16-1.46-2.07-.51-1.07-1.38-1.88-2.59-2-.87-.09-1.7,.23-2.47,.61-.77,.38-1.44,.82-2.18,1.18l-.06,.03h-.02c-.09,.04-.18,.07-.28,.1-.09,.03-.38,.09-.4,.1-.14,0-.35,0-.31,.01-.04,0-.09-.02-.13-.03-.03,0-.06-.01-.09-.02-.03-.02-.05-.04-.08-.05-.15-.07-.29-.16-.41-.28-.18-.16-.34-.32-.51-.48-.36-.37-.77-.69-1.21-.96-1.29-.7-2.64-.37-3.79,.44-2.36,1.67-4.67,3.43-7,5.14-1.01,.74-1.98,1.57-3.08,2.17-.34,.2-.7,.34-1.07,.44-.12,.04-.25,.07-.38,.09h-.1c-.11,.02-.21,.02-.32,.01,0,0-.11-.03-.18-.04-.02,0-.05-.02-.07-.03-.02-.02-.05-.03-.08-.04-.02-.03-.03-.05-.05-.07,.06,.07-.12-.23-.15-.33-.16-.58-.14-1.23-.19-1.84l-.32-4.29c-.19-2.6-.22-5.28-.76-7.83-.49-2.31-1.73-4.55-3.95-5.59-.54-.24-1.1-.43-1.68-.56s-1.16-.2-1.76-.21c-.59-.01-1.18,.04-1.76,.15-.58,.11-1.15,.28-1.7,.51-2.34,.94-4.27,2.61-5.95,4.45-1.67,1.83-3.12,3.83-4.35,5.97-1.24,2.15-2.23,4.4-2.98,6.77-.36,1.15-.66,2.32-.9,3.51-.13,.69,.2,1.4,.91,1.59Z"/>
  <path class="cls-6" d="M469.25,170.44c-2.44-1.18-5.04-.77-7.61-.33-2.7,.47-5.42,.86-8.15,1.18-5.53,.66-11.08,1.07-16.64,1.35-5.53,.28-11.06,.43-16.58,.59-5.28,.15-10.67,.35-15.85-.9-2.91-.7-5.81-1.76-8.82-.92-1.88,.53-3.5,1.62-5.01,2.85-1.06-2.33-3.77-3.9-6.33-3.79-.82,.05-1.62,.22-2.39,.52-.77,.3-1.47,.71-2.11,1.23,.3-2.69,.14-5.34-.46-7.98-.49-2.01-1.48-3.94-3.13-5.25-1.62-1.27-3.54-1.88-5.55-2.11-3.86-.43-7.89,.79-11.17,2.79-1.74,1.08-3.31,2.36-4.71,3.85-1.4,1.49-2.59,3.13-3.56,4.93-2.37,4.33-3.5,9.23-3.76,14.14-.04,.7,.62,1.3,1.3,1.3,.17,0,.33-.04,.49-.1s.3-.16,.42-.28c.12-.12,.21-.26,.28-.42,.07-.16,.1-.32,.1-.49,.4-7.34,3.07-15.03,9.14-19.59,2.73-2.06,6.04-3.46,9.48-3.6,1.59-.06,3.26,.12,4.7,.83,.74,.36,1.39,.85,1.93,1.47,.55,.62,.95,1.32,1.21,2.1,.71,2.03,.84,4.25,.79,6.39-.06,2.39-.44,4.72-1.14,7-.04,.15-.05,.3-.04,.46,.02,.16,.06,.3,.13,.45,.07,.14,.16,.26,.27,.37,.11,.11,.24,.19,.39,.25,.54,.22,1.36,.07,1.62-.53,.98-2.33,2.89-4.83,5.55-5.14,.55-.05,1.1,0,1.63,.16,.54,.16,1.02,.4,1.47,.74,.92,.7,1.39,1.62,1.33,2.7-.07,1.19,1.43,1.62,2.21,.92,1.59-1.42,3.28-2.94,5.34-3.6,2.38-.76,4.74,.07,7.06,.67,5.12,1.33,10.44,1.33,15.7,1.2,10.76-.28,21.55-.56,32.27-1.7,3.04-.32,6.06-.72,9.08-1.19,1.35-.2,2.69-.5,4.04-.65,1.25-.14,2.61-.2,3.77,.36,.63,.3,1.4,.17,1.77-.47,.33-.57,.17-1.47-.46-1.77Z"/>
  <polygon class="cls-3" points="339.8 97.88 320 115.45 309.45 103.87 304.27 108.59 303.13 109.63 304.27 110.88 319.21 127.27 320.26 126.31 325.52 121.51 340.17 108.5 343.62 105.43 348.74 100.89 343.62 95.28 343.22 94.84 339.8 97.88"/>
  <polygon class="cls-3" points="320.48 161.22 311.1 150.92 309.84 149.54 308.33 150.92 304.27 154.62 303.47 155.35 304.27 156.22 319.68 173.13 320.74 172.16 326.04 167.32 340.17 154.77 343.62 151.71 349.44 146.54 343.88 140.43 335.97 147.46 332.07 150.92 320.48 161.22"/>
  <polygon class="cls-3" points="343.62 160.35 343.17 159.84 340.17 162.5 319.76 180.63 309.12 168.95 304.27 173.38 302.75 174.76 304.27 176.42 313.77 186.85 316.92 190.31 318.96 192.54 320.02 191.57 321.4 190.31 325.19 186.85 325.32 186.73 340.17 173.54 343.62 170.48 348.73 165.95 343.62 160.35"/>
  <path class="cls-4" d="M508.71,258.02c-.96-3.5-2.67-6.88-4-9.43-1.52-2.88-3.63-5.46-5.64-7.78-1.89-2.17-3.81-4.03-6.02-5.71-.42-.32-.86-.65-1.3-.98-1.61-1.19-3.38-2.41-5.28-3.5-1.41-.81-2.89-1.55-4.43-2.16-2.05-.84-4.28-1.71-6.73-2.17-.56-.09-1.18-.25-1.92-.31-4.09-1.02-8.28-1.46-12.5-1.3-15.54,.56-29.49,8.96-37.3,22.45l-.43,.59-.43,.59c-1.46,2.02-2.67,4.37-3.54,6.95-6.73-2.42-12.43-4.06-17.89-5.21-4.09-.87-8.34-1.55-12.71-1.89-.56-.03-1.18-.06-1.77-.09l-.34-.03c-.74-.09-1.46-.19-2.2-.25-5.33-.65-10.98-.78-18.39-.5-1.02,.03-2.02,.06-3.04,.12-1.24,.03-2.48,.16-3.72,.25-1.02-.03-1.98,0-2.98,0h-.28c-.34,0-.62,.03-.96,.03-6.48,.25-13.43,1.27-21.77,3.32-2.36,.59-4.74,1.3-7.13,2.08-1.15-3.41-2.7-6.26-4.84-8.78l-.47-.56c-1.43-1.71-2.95-3.57-4.65-5.12-1.74-1.61-3.66-3.01-5.52-4.31-2.88-2.05-6.11-3.78-9.67-5.12-4.19-1.71-8.28-3.19-12.87-3.81-4.34-.81-7.69-1.02-10.79-.9-.74,.03-1.46,.06-2.26,.12-3.13,.34-5.55,.71-7.72,1.3-2.45,.71-4.68,1.74-6.54,2.67-4.09,2.02-7.6,4.9-10.51,7.44-2.02,1.83-3.88,3.81-5.58,6.11-1.83,2.54-3.75,5.27-5.05,8.19-1.21,2.64-2.6,6.14-3.32,9.71-.65,3.41-1.05,6.76-1.05,9.95-.03,3.94,.56,7.69,1.12,10.51,.56,2.85,1.27,5.3,2.14,7.54,1.55,3.85,3.07,6.82,4.81,9.4,1.95,2.91,4.03,5.55,6.2,7.78,1.3,1.3,2.7,2.67,4.16,3.97-.99,2.02-1.98,4.19-2.91,6.57-3.13,8-4.96,15.16-5.67,21.8-.5,4.74-.71,9.43-.56,13.83-.03,.74-.06,1.46-.09,2.14-.06,2.88-.09,5.24,.03,7.38,.16,2.88,.43,5.33,.68,7.6,.22,4.16,.71,8.59,1.55,13.15,1.21,6.54,3.6,13.58,7.26,21.33,3.13,6.61,7.26,12.99,12.25,19.01,4.19,4.96,9.27,9.71,16.62,15.29,10.05,7.63,22.54,13.89,38.3,19.23,5.77,1.92,12.65,4.09,19.94,5.36,5.74,.96,10.82,1.52,15.5,1.67,3.23,.4,6.51,.71,9.86,.93,5.85,.38,11.92,.47,17.92,.3l3.24-.12c3.88-.18,7.83-.48,11.81-.93l.96-.03c52.93-1.92,95.76-43.2,99.7-95.91,.53-4.47,.68-9.05,.53-13.55-.43-12.16-3.32-24.06-8.43-35.26-.68-1.89-1.43-3.85-2.29-5.77,3.66-3.13,6.7-6.17,9.18-9.24,1.95-2.39,3.88-5.15,5.61-8.22,1.58-2.7,2.88-5.8,4.09-9.74,.71-2.29,1.24-4.78,1.58-7.66,.34-2.88,.65-6.67,.34-10.54-.28-3.19-.87-6.51-1.83-9.8Zm-243.49,32.62c-3.91-3.81-14.61-16.68-15.29-22.7-.68-5.92-.19-13.09,5.18-19.23,3.69-4.22,9.43-9.64,18.26-8.84,5.18,.47,9.24,2.51,13.43,5.67,4.53,3.41,8.31,7.54,11.41,13.8-4.28,4.34-9.58,8.34-13.89,12.62l-19.1,18.67Zm59.35,59.82c-.16,3.1-.93,6.36-2.08,9.27-.59,1.71-1.33,3.1-2.36,4.59-.9,1.3-2.05,2.33-3.26,3.32-1.49,1.18-4,1.95-5.8,1.95-.81,0-1.58-.06-2.33-.16-.06-.03-.16-.03-.28-.03-.59-.09-1.27-.31-1.89-.56-.96-.34-1.95-.87-2.82-1.58-.06,.03-.12-.03-.19-.09-.28-.16-.56-.37-.81-.59-1.09-1.02-2.33-2.05-3.1-3.38-.84-1.43-1.8-2.91-2.2-4.53-.4-1.74-.99-3.41-.93-5.21s.03-3.66,.37-5.43c.56-2.95,1.3-5.92,2.39-8.71,1.15-2.98,2.95-5.86,5.71-7.66,1.71-1.09,3.66-1.71,5.55-1.83,2.64-.09,5.3,.74,7.41,2.54,.9,.74,1.58,1.58,2.36,2.39,.34,.31,.62,.71,.93,1.15,.78,1.27,1.64,2.7,2.08,4.22,.47,1.67,.96,3.35,1.15,5.02,.25,1.74,.19,3.5,.09,5.3Zm-3.59-30.2c-8.63,.8-19.39-2.99-19.72-9.22-.33-6.23,.52-9.39,3.56-8.38,3.04,1.01,6.47,6.37,14.13,7.74,7.66,1.37,8.78,4.7,8.78,4.7,0,0,1.89,4.36-6.75,5.17Zm37.12,26.54c.74-.81,1.52-1.64,2.39-2.23,.56-.37,1.09-.71,1.71-1.02,2.45-1.89,5.4-2.85,8.43-3.41,1.12-.19,2.23-.34,3.47-.37,4.47-.16,8.99,.84,13.18,2.39,3.69,1.4,6.95,3.97,8.28,7.75,.87,2.51,.68,5.43-.4,7.85-.87,1.89-2.51,3.72-4.16,4.9-2.54,1.83-5.36,3.23-8.37,3.97-1.86,.47-3.54,.81-5.4,.81-1.8,.03-3.78-.03-5.55-.47-3.13-.74-6.39-1.58-9.15-3.22-1.77-1.09-3.29-2.2-4.59-3.91-1.3-1.71-1.92-3.47-2.17-5.61-.25-2.48,.65-5.55,2.33-7.41Zm46.1,55.45c-.18,.41-.43,.77-.73,1.08-.34,.33-.7,.58-1.1,.75-.41,.18-.84,.27-1.28,.28-3.23-.02-6.43,.26-9.55,.83-10.03,1.8-20.39,6.23-32.62,13.95-.48,.3-1.03,.46-1.58,.46-.32,0-.64-.05-.95-.16-.94-.31-1.68-1.04-2.05-1.99-.16-.42-.24-.84-.25-1.26-.02-.41,.04-.85,.18-1.27,.12-.39,.32-.79,.58-1.13,.23-.32,.54-.62,.9-.87l.06-.04c3.21-2.03,6.37-3.87,9.39-5.49,12.88-6.85,24.59-10.18,35.78-10.18,.14,0,.28,0,.43,0h0c.83,0,1.6,.38,2.19,1.04,.66,.76,.99,1.8,.89,2.81-.02,.41-.12,.81-.28,1.2Zm11.03-88.64s1.12-3.33,8.78-4.7c7.66-1.37,11.09-6.73,14.13-7.74,3.04-1.01,3.9,2.15,3.56,8.38-.33,6.23-11.09,10.02-19.72,9.22-8.63-.8-6.75-5.17-6.75-5.17Zm32.4,45.6c-.31,.62-.59,1.18-.9,1.77-.47,.81-.96,1.61-1.49,2.36-.74,.74-1.52,1.58-2.39,2.17-.78,.4-1.55,.84-2.39,1.21-1.46,.62-3.38,.68-4.9,.53-1.18-.12-2.26-.56-3.35-.96-.65-.25-2.08-1.21-2.73-1.86-.68-.71-1.33-1.43-1.98-2.14-1.89-2.2-3.07-5.02-3.78-7.81-.53-2.02-.99-4.09-1.02-6.17,.06-1.86,.03-3.78,.37-5.64,.28-1.83,.78-3.54,1.33-5.3,.19-.65,.4-1.33,.65-1.95,.34-.87,.84-1.67,1.43-2.42,1.12-1.67,3.04-3.1,4.99-3.72,.87-.31,1.77-.47,2.85-.5,1.64-.06,3.35,.34,4.84,1.18,3.44,1.89,6.17,5.3,7.6,8.96,.31,.84,.59,1.61,.78,2.45,.25,.62,.5,1.27,.68,1.95,.47,1.55,.96,3.16,1.09,4.81,.31,3.69-.16,7.66-1.67,11.1Zm44.81-91.76c-.28,6.29-10.42,20.37-14.17,24.62l-21.18-17.99c-4.78-4.12-10.54-7.88-15.29-12.06,2.76-6.73,6.39-11.26,10.82-15.1,4.09-3.57,8.16-5.98,13.49-6.85,9.09-1.49,15.44,3.75,19.57,7.85,6.02,5.98,7.01,13.37,6.76,19.54Z"/>
  <path class="cls-5" d="M286.8,245.56c-4.19-3.16-8.25-5.21-13.43-5.67-8.84-.81-14.57,4.62-18.26,8.84-5.36,6.14-5.86,13.3-5.18,19.23,.68,6.02,11.38,18.88,15.29,22.7l19.1-18.67c4.31-4.28,9.61-8.28,13.89-12.62-3.1-6.26-6.88-10.39-11.41-13.8Z"/>
  <path class="cls-6" d="M323.33,340.14c-.43-1.52-1.3-2.95-2.08-4.22-.31-.43-.59-.84-.93-1.15-.78-.81-1.46-1.64-2.36-2.39-2.11-1.8-4.78-2.64-7.41-2.54-1.89,.12-3.85,.74-5.55,1.83-2.76,1.8-4.56,4.68-5.71,7.66-1.09,2.79-1.83,5.77-2.39,8.71-.34,1.77-.31,3.63-.37,5.43s.53,3.47,.93,5.21c.4,1.61,1.36,3.1,2.2,4.53,.78,1.33,2.02,2.36,3.1,3.38,.25,.22,.53,.43,.81,.59,.06,.06,.12,.12,.19,.09,.87,.71,1.86,1.24,2.82,1.58,.62,.25,1.3,.47,1.89,.56,.12,0,.22,0,.28,.03,.74,.09,1.52,.16,2.33,.16,1.8,0,4.31-.78,5.8-1.95,1.21-.99,2.36-2.02,3.26-3.32,1.02-1.49,1.77-2.88,2.36-4.59,1.15-2.92,1.92-6.17,2.08-9.27,.09-1.8,.16-3.57-.09-5.3-.19-1.67-.68-3.35-1.15-5.02Z"/>
  <path class="cls-6" d="M357.94,359.83c1.3,1.71,2.82,2.82,4.59,3.91,2.76,1.64,6.02,2.48,9.15,3.22,1.77,.43,3.75,.5,5.55,.47,1.86,0,3.54-.34,5.4-.81,3.01-.74,5.83-2.14,8.37-3.97,1.64-1.18,3.29-3.01,4.16-4.9,1.09-2.42,1.27-5.33,.4-7.85-1.33-3.78-4.59-6.36-8.28-7.75-4.19-1.55-8.71-2.54-13.18-2.39-1.24,.03-2.36,.19-3.47,.37-3.04,.56-5.98,1.52-8.43,3.41-.62,.31-1.15,.65-1.71,1.02-.87,.59-1.64,1.43-2.39,2.23-1.67,1.86-2.57,4.93-2.33,7.41,.25,2.14,.87,3.91,2.17,5.61Z"/>
  <path class="cls-6" d="M448.21,343.3c-.19-.68-.43-1.33-.68-1.95-.19-.84-.47-1.61-.78-2.45-1.43-3.66-4.16-7.07-7.6-8.96-1.49-.84-3.19-1.24-4.84-1.18-1.09,.03-1.98,.19-2.85,.5-1.95,.62-3.88,2.05-4.99,3.72-.59,.74-1.09,1.55-1.43,2.42-.25,.62-.47,1.3-.65,1.95-.56,1.77-1.05,3.47-1.33,5.3-.34,1.86-.31,3.78-.37,5.64,.03,2.08,.5,4.16,1.02,6.17,.71,2.79,1.89,5.61,3.78,7.81,.65,.71,1.3,1.43,1.98,2.14,.65,.65,2.08,1.61,2.73,1.86,1.09,.4,2.17,.84,3.35,.96,1.52,.16,3.44,.09,4.9-.53,.84-.37,1.61-.81,2.39-1.21,.87-.59,1.64-1.43,2.39-2.17,.53-.74,1.02-1.55,1.49-2.36,.31-.59,.59-1.15,.9-1.77,1.52-3.44,1.98-7.41,1.67-11.1-.12-1.64-.62-3.26-1.09-4.81Z"/>
  <path class="cls-5" d="M466.1,240.07c-5.33,.87-9.4,3.29-13.49,6.85-4.43,3.85-8.06,8.37-10.82,15.1,4.74,4.19,10.51,7.94,15.29,12.06l21.18,17.99c3.75-4.25,13.89-18.33,14.17-24.62,.25-6.17-.74-13.55-6.76-19.54-4.12-4.09-10.48-9.33-19.57-7.85Z"/>
  <path class="cls-6" d="M400.98,400.5c-10.64,0-21.84,3.21-34.23,9.8-2.94,1.57-6.01,3.36-9.14,5.34-.04,.03-.08,.07-.11,.11-.05,.07-.07,.11-.09,.16-.02,.08-.03,.12-.03,.17,0,.05,0,.09,.02,.13,12.49-7.86,23.16-12.39,33.55-14.26,3.32-.6,6.71-.91,10.09-.88-.02,0,0,0,.03-.02,.02,0,.04-.02,.07-.05,0,0,.02-.03,.04-.07,0-.02,0-.04,0-.05v-.16c.02-.08,0-.16-.03-.23h-.18Z"/>
  <path d="M401.4,397.21h0c-.14,0-.28,0-.43,0-11.19,0-22.9,3.33-35.78,10.18-3.02,1.61-6.18,3.46-9.39,5.49l-.06,.04c-.36,.25-.67,.55-.9,.87-.26,.35-.46,.74-.58,1.13-.14,.42-.2,.86-.18,1.27,.01,.42,.09,.84,.25,1.26,.37,.95,1.11,1.68,2.05,1.99,.31,.1,.63,.16,.95,.16,.55,0,1.1-.15,1.58-.46,12.23-7.72,22.59-12.15,32.62-13.95,3.13-.57,6.32-.85,9.55-.83,.44-.01,.87-.11,1.28-.28,.4-.17,.76-.42,1.1-.75,.3-.31,.55-.67,.73-1.08,.17-.38,.26-.79,.28-1.2,.1-1.01-.23-2.05-.89-2.81-.58-.67-1.36-1.04-2.19-1.04Zm-.21,3.68s0,.04,0,.05c-.02,.03-.03,.06-.04,.07-.03,.03-.06,.04-.07,.05-.03,.01-.05,.02-.03,.02-3.38-.03-6.77,.28-10.09,.88-10.39,1.86-21.06,6.4-33.55,14.26,0-.04-.01-.08-.02-.13,0-.05,0-.09,.03-.17,.02-.05,.04-.1,.09-.16,.03-.04,.06-.07,.11-.11,3.13-1.97,6.21-3.77,9.14-5.34,12.39-6.59,23.59-9.8,34.23-9.8h.18c.03,.06,.05,.15,.04,.23v.16Z"/>
  <path class="cls-5" d="M441.69,309.55c.33-6.23-.52-9.39-3.56-8.38-3.04,1.01-6.47,6.37-14.13,7.74-7.66,1.37-8.78,4.7-8.78,4.7,0,0-1.89,4.36,6.75,5.17,8.63,.8,19.39-2.99,19.72-9.22Z"/>
  <path class="cls-5" d="M318.95,310.4c-7.66-1.37-11.09-6.73-14.13-7.74-3.04-1.01-3.9,2.15-3.56,8.38,.33,6.23,11.09,10.02,19.72,9.22,8.63-.8,6.75-5.17,6.75-5.17,0,0-1.12-3.33-8.78-4.7Z"/>
</svg>