<?xml version="1.0" encoding="UTF-8"?>
<svg xmlns="http://www.w3.org/2000/svg" viewBox="0 0 934.31 649.93">
  <defs>
    <style>
      .cls-1 {
        fill: #b67c65;
      }

      .cls-2 {
        fill: #c5846b;
      }

      .cls-3 {
        fill: #422717;
      }

      .cls-4 {
        fill: #5b504c;
      }
    </style>
  </defs>
  <g id="Bear">
    <g>
      <path class="cls-1" d="M111.34,.08c-1.94,.07-3.88,.14-5.96,.37-8.33,.9-14.71,1.88-20.48,3.43-6.5,1.88-12.38,4.63-17.37,7.06-10.86,5.32-20.14,12.98-27.81,19.68-5.35,4.83-10.23,10.08-14.79,16.22-4.83,6.75-9.94,13.95-13.39,21.69-3.18,6.98-6.88,16.23-8.77,25.7C1.01,103.25-.01,112.1,0,120.61c-.07,10.45,1.49,20.4,2.96,27.81,1.47,7.56,3.35,14.06,5.66,19.95,4.11,10.15,8.13,18.07,12.71,24.92,5.21,7.72,10.69,14.69,16.43,20.6,3.41,3.46,7.13,7.06,10.99,10.5-2.64,5.32-5.27,11.09-7.73,17.45-8.33,21.21-13.17,40.2-15.06,57.74-1.33,12.59-1.92,25.01-1.5,36.64-.08,1.94-.16,3.89-.24,5.68-.17,7.62-.24,13.9,.12,19.56,.43,7.6,1.12,14.15,1.78,20.09,.55,11.03,1.88,22.78,4.11,34.79,3.17,17.35,9.53,35.93,19.24,56.48,8.26,17.47,19.18,34.39,32.45,50.33,11.08,13.18,24.54,25.68,44.04,40.5,26.58,20.23,59.74,36.79,101.48,50.94,15.27,5.11,33.55,10.87,52.79,14.2,15.18,2.58,28.67,4.03,41.08,4.47,8.55,1.03,17.24,1.91,26.08,2.48,16.46,1.04,33.5,1.31,50.35,.7,12.08-.44,24.44-1.34,36.94-2.69l2.54-.09c140.2-5.12,253.59-114.38,264.02-254.07,1.36-11.85,1.81-23.96,1.38-35.89-1.18-32.21-8.75-63.74-22.38-93.4-1.83-5.01-3.8-10.16-6.09-15.3,9.71-8.27,17.77-16.33,24.34-24.48,5.15-6.31,10.25-13.67,14.89-21.75,4.22-7.17,7.65-15.36,10.86-25.78,1.87-6.04,3.27-12.66,4.19-20.31,.91-7.65,1.74-17.68,.92-27.96-.76-8.48-2.27-17.24-4.83-25.95-2.58-9.31-7.09-18.25-10.62-25-4.01-7.62-9.64-14.43-14.94-20.66-4.99-5.79-10.09-10.68-15.93-15.09-8.14-6.27-18.11-13.23-29.17-17.6-5.46-2.19-11.36-4.51-17.83-5.77-1.5-.24-3.16-.63-5.11-.86-10.85-2.74-21.94-3.83-33.13-3.42-41.16,1.5-78.14,23.76-98.78,59.45l-1.14,1.53-1.14,1.54c-3.84,5.37-7.04,11.61-9.33,18.41-17.86-6.37-32.95-10.74-47.4-13.8-10.84-2.29-22.11-4.12-33.64-5.04-1.5-.1-3.14-.18-4.64-.28l-.9-.12c-1.95-.23-3.9-.46-5.85-.69-14.1-1.72-29.05-2.07-48.73-1.35l-8.05,.29c-3.28,.12-6.56,.39-9.83,.66-2.69-.05-5.23,.04-7.92-.01l-.74,.03-2.54,.09c-17.15,.63-35.57,3.39-57.62,8.83-6.21,1.57-12.57,3.44-18.92,5.47-3.02-9-7.18-16.61-12.8-23.27l-1.25-1.45c-3.75-4.49-7.81-9.42-12.29-13.59-4.64-4.31-9.7-8.01-14.6-11.41-7.67-5.4-16.2-10.01-25.59-13.55-11.06-4.52-21.96-8.45-34.12-10.1C128.37,.35,119.54-.22,111.34,.08Z"/>
      <path class="cls-2" d="M130.21,125.84c11.42-11.33,25.45-21.94,36.78-33.42-8.18-16.61-18.27-27.5-30.2-36.54-11.06-8.38-21.81-13.78-35.54-15.04-23.4-2.15-38.64,12.26-48.41,23.41-14.25,16.26-15.49,35.23-13.73,50.92,1.78,15.94,30.11,50.05,40.45,60.16"/>
      <path class="cls-3" d="M185.01,283.91c-7.3,4.74-12.09,12.38-15.09,20.26-2.87,7.42-4.82,15.26-6.33,23.08-.87,4.66-.84,9.59-.97,14.37s1.38,9.21,2.45,13.8c1.05,4.29,3.58,8.23,5.82,12.03,2.07,3.51,5.3,6.23,8.24,8.96,.62,.58,1.39,1.14,2.15,1.57,.16,.14,.31,.29,.46,.28,2.31,1.85,4.9,3.25,7.47,4.2,1.67,.68,3.48,1.22,4.98,1.46,.29-.01,.59-.02,.75,.12,1.95,.22,4.05,.45,6.14,.37,4.78-.02,11.42-2.06,15.34-5.19,3.19-2.65,6.23-5.3,8.64-8.83,2.69-3.98,4.65-7.64,6.28-12.18,3.01-7.73,5.08-16.31,5.52-24.54,.27-4.79,.41-9.42-.21-14.02-.46-4.46-1.82-8.89-3.03-13.33-1.19-3.98-3.42-7.79-5.48-11.15-.79-1.17-1.57-2.18-2.5-3.04-2.02-2.16-3.9-4.34-6.21-6.34-5.55-4.72-12.65-7-19.66-6.75-5.07,.33-10.23,2.02-14.76,4.87Z"/>
      <path class="cls-3" d="M519.9,277.5c-5.17,1.68-10.25,5.45-13.23,9.89-1.57,2-2.84,4.13-3.8,6.41-.68,1.66-1.22,3.48-1.75,5.14-1.47,4.69-2.8,9.21-3.52,14.02-.86,4.96-.83,10.03-.95,14.97,.05,5.52,1.3,11.01,2.69,16.33,1.91,7.4,5.03,14.9,10.01,20.69,1.71,1.88,3.42,3.75,5.29,5.63,1.7,1.73,5.53,4.28,7.2,4.96,2.88,1.09,5.76,2.18,8.91,2.51,4.05,.45,9.12,.26,12.94-1.37,2.2-.98,4.26-2.09,6.3-3.21,2.33-1.58,4.35-3.75,6.36-5.76,1.42-1.99,2.69-4.13,3.95-6.27,.84-1.52,1.53-3.04,2.37-4.71,4-9.11,5.26-19.6,4.45-29.43-.31-4.32-1.66-8.6-2.85-12.74-.51-1.77-1.17-3.54-1.83-5.16-.53-2.22-1.2-4.28-2.03-6.49-3.79-9.72-10.99-18.71-20.13-23.75-3.96-2.24-8.48-3.27-12.81-3.11-2.82,.25-5.2,.64-7.56,1.47Z"/>
      <path class="cls-1" d="M62.33,274.06c-3.96,1.94-7.12,5.49-8.6,9.72-1.63,4.54-1.02,8.99,.79,13.41,3.6,8.68,15.07,11.84,23.14,7.81,3.96-1.94,7.12-5.49,8.6-9.72,1.63-4.54,1.02-8.99-.79-13.41-3.75-8.67-15.22-11.84-23.14-7.81Z"/>
      <path class="cls-1" d="M123.81,231.8c-2.62-6.33-8.92-11.32-15.28-13.63-6.81-2.44-14.56-2.01-21.01,1.22-6.31,3.07-11.18,8.62-13.63,15.28-2.58,7.11-1.58,14.09,1.21,21.01,2.62,6.33,8.93,11.32,15.28,13.63,6.81,2.44,14.56,2.01,21.01-1.22,6.31-3.06,11.19-8.62,13.63-15.28,2.57-7.26,1.72-14.24-1.22-21.01Z"/>
      <path class="cls-2" d="M587.75,131.37c-12.64-10.92-27.93-20.9-40.5-31.97,7.27-17.79,16.94-29.79,28.65-40.02,10.85-9.48,21.6-15.84,35.72-18.13,24.08-3.91,40.9,9.92,51.82,20.77,15.93,15.82,18.57,35.37,17.88,51.75-.7,16.64-27.59,54-37.57,65.21"/>
      <path class="cls-3" d="M353.49,436.8c-.12,1.17-.15,2.37-.04,3.6,.53,6.12,1.16,13.45,1.81,21.19,1.71,20.25-30.68,12.74-43.04,7.44-6.8-2.92-8.07,6.63-6.25,9.75,1.87,3.19,8.31,9.66,11.2,11.43,21.93,13.45,39.11,12,48.16,2.72,4.31-4.42,10.54-5.15,15.39-1.51,24.22,18.21,49.89,4.62,58.93-9.94,5.57-8.98,1.94-12.2-2.43-13.29-3.92-.98-7.93,.61-10.94,3.73-13.24,13.74-28.27,5-35.92-1.28-3.2-2.63-5.24-6.84-5.64-11.45l-1.87-21.85c-.04-.48-.1-.95-.18-1.41,36.09-5.64,44.26-23.19,43.86-38.36-.36-13.39-7.84-25.59-19.15-32.52-50.97-31.23-90.57,3.84-90.57,3.84-7.53,6.89-11.31,15.77-11.44,24.85-.13,9.36,3.63,18.91,11.24,26.69,8.04,8.22,20.35,14.45,36.87,16.35Z"/>
    </g>
  </g>
  <g id="Hand">
    <g>
      <path class="cls-1" d="M905.34,219.41c-49.58-42.33-154.93-42.03-180.59,135.41-20.49,141.69-131.1,242.65-81.53,284.98,49.58,42.33,118.01-54.65,223.21-166.44,73.76-78.38,88.49-211.62,38.91-253.95Zm-103.9-3.81c8.83-.41,16.5,14.17,17.13,32.57,.62,18.4-6.03,33.64-14.86,34.05-8.83,.41-16.5-14.17-17.13-32.57-.62-18.4,6.03-33.64,14.86-34.05Zm68.32,134.34c-5.64,16.92-28.34,22.36-50.7,12.16-22.37-10.2-35.93-32.19-30.29-49.11,5.64-16.92,28.34-22.36,50.7-12.16,22.37,10.2,35.93,32.19,30.29,49.11Zm2.61-95.99c-6.39,16.83-18.12,27.06-26.19,22.86-8.08-4.2-9.45-21.24-3.06-38.07,6.39-16.83,18.12-27.06,26.19-22.86s9.45,21.24,3.06,38.07Zm37.45,38.18c-12.06,11.83-26.44,14.99-32.11,7.06-5.68-7.93-.51-23.94,11.55-35.77,12.06-11.83,26.44-14.99,32.11-7.06,5.68,7.93,.51,23.94-11.55,35.77Z"/>
      <path class="cls-4" d="M839.46,300.84c-22.37-10.2-45.07-4.76-50.7,12.16-5.64,16.92,7.93,38.9,30.29,49.11,22.37,10.2,45.07,4.76,50.7-12.16,5.64-16.92-7.93-38.9-30.29-49.11Z"/>
      <ellipse class="cls-4" cx="857.73" cy="246.35" rx="32.66" ry="16.34" transform="translate(351.47 981.25) rotate(-71.46)"/>
      <path class="cls-4" d="M921.36,256.36c-5.68-7.93-20.06-4.77-32.11,7.06-12.06,11.83-17.23,27.84-11.55,35.77,5.68,7.93,20.06,4.77,32.11-7.06,12.06-11.83,17.23-27.84,11.55-35.77Z"/>
      <path class="cls-4" d="M803.7,282.22c8.83-.41,15.49-15.66,14.86-34.05-.62-18.4-8.29-32.98-17.13-32.57-8.83,.41-15.49,15.66-14.86,34.05,.62,18.4,8.29,32.98,17.13,32.57Z"/>
    </g>
  </g>
</svg>