<?xml version="1.0" encoding="UTF-8"?>
<svg id="Mood" xmlns="http://www.w3.org/2000/svg" viewBox="0 0 585.47 563.16">
  <defs>
    <style>
      .cls-1 {
        fill: #b67c65;
      }

      .cls-2 {
        fill: #c5846b;
      }

      .cls-3 {
        fill: #412616;
      }
    </style>
  </defs>
  <path class="cls-1" d="M337.75,500.48l1.63-.06c90.38-3.3,163.48-73.74,170.2-163.79,.88-7.64,1.17-15.44,.89-23.14-.76-20.76-5.64-41.09-14.43-60.21-1.18-3.23-2.45-6.55-3.92-9.87,6.26-5.33,11.46-10.53,15.69-15.78,3.32-4.07,6.61-8.81,9.6-14.02,2.72-4.62,4.93-9.9,7-16.62,1.2-3.89,2.11-8.16,2.7-13.09,.59-4.93,1.12-11.4,.59-18.02-.49-5.47-1.47-11.11-3.11-16.73-1.67-6-4.57-11.77-6.85-16.11-2.59-4.91-6.21-9.3-9.63-13.32-3.22-3.73-6.51-6.88-10.27-9.73-5.25-4.04-11.67-8.53-18.8-11.34-3.52-1.41-7.33-2.91-11.5-3.72-.97-.16-2.03-.41-3.29-.55-7-1.77-14.14-2.47-21.36-2.21-26.54,.97-50.37,15.32-63.68,38.33l-.74,.99-.73,.99c-2.47,3.46-4.54,7.48-6.02,11.87-11.51-4.11-21.24-6.93-30.56-8.9-6.99-1.48-14.25-2.66-21.68-3.25-.97-.06-2.03-.12-2.99-.18l-.58-.08c-1.26-.15-2.51-.29-3.77-.44-9.09-1.11-18.73-1.34-31.42-.87-1.73,.06-3.46,.13-5.19,.19-2.12,.08-4.23,.25-6.34,.42-1.73-.03-3.37,.03-5.1,0l-.48,.02c-.58,.02-1.06,.04-1.63,.06-11.06,.4-22.93,2.18-37.15,5.69-4.01,1.01-8.1,2.22-12.2,3.53-1.94-5.8-4.63-10.71-8.25-15l-.8-.93c-2.42-2.89-5.03-6.07-7.93-8.76-2.99-2.78-6.25-5.16-9.41-7.36-4.94-3.48-10.44-6.45-16.5-8.74-7.13-2.92-14.16-5.45-21.99-6.51-7.45-1.07-13.15-1.44-18.44-1.25-1.25,.05-2.5,.09-3.84,.24-5.37,.58-9.48,1.21-13.2,2.21-4.19,1.21-7.98,2.99-11.2,4.55-7,3.43-12.98,8.37-17.93,12.69-3.45,3.11-6.6,6.5-9.53,10.46-3.11,4.35-6.41,8.99-8.63,13.98-2.05,4.5-4.43,10.46-5.65,16.57-1.14,5.82-1.79,11.52-1.79,17.01-.04,6.74,.96,13.15,1.9,17.93,.95,4.87,2.16,9.07,3.65,12.86,2.65,6.55,5.24,11.65,8.19,16.06,3.36,4.98,6.89,9.47,10.59,13.28,2.2,2.23,4.6,4.55,7.08,6.77-1.7,3.43-3.4,7.15-4.98,11.25-5.37,13.67-8.49,25.91-9.71,37.22-.86,8.12-1.24,16.12-.97,23.62-.05,1.25-.1,2.51-.15,3.66-.11,4.91-.16,8.96,.07,12.61,.28,4.9,.72,9.12,1.15,12.95,.36,7.11,1.21,14.68,2.65,22.43,2.04,11.19,6.14,23.17,12.4,36.41,5.32,11.26,12.36,22.17,20.92,32.44,7.15,8.5,15.82,16.56,28.39,26.11,17.13,13.04,38.51,23.72,65.42,32.84,9.85,3.3,21.63,7.01,34.03,9.15,9.79,1.67,18.48,2.6,26.48,2.88,5.51,.67,11.12,1.23,16.81,1.6,10.61,.67,21.59,.85,32.46,.45h.01c7.79-.29,15.75-.87,23.81-1.74Zm91.04-370.26c6.99-6.11,13.92-10.21,23.03-11.69,15.52-2.52,26.37,6.4,33.4,13.39,10.27,10.2,11.97,22.8,11.53,33.36-.45,10.73-17.78,34.81-24.22,42.04l-36.1-30.69c-8.15-7.04-18.01-13.47-26.11-20.61,4.69-11.47,10.92-19.2,18.47-25.8Zm-50.47,163.46c.46-3.1,1.32-6.01,2.27-9.03,.34-1.07,.69-2.24,1.13-3.31,.62-1.47,1.44-2.85,2.45-4.13,1.92-2.86,5.2-5.29,8.53-6.38,1.52-.54,3.05-.78,4.87-.95,2.79-.1,5.7,.56,8.26,2.01,5.89,3.25,10.54,9.05,12.98,15.31,.53,1.42,.97,2.75,1.31,4.19,.42,1.04,.85,2.18,1.18,3.33,.77,2.67,1.64,5.43,1.84,8.21,.52,6.33-.29,13.1-2.87,18.97-.54,1.08-.98,2.06-1.53,3.04-.82,1.38-1.63,2.76-2.55,4.04-1.3,1.3-2.6,2.69-4.1,3.71-1.32,.72-2.64,1.44-4.06,2.07-2.46,1.05-5.73,1.17-8.34,.88-2.03-.22-3.89-.92-5.74-1.62-1.07-.44-3.54-2.08-4.64-3.2-1.2-1.21-2.3-2.42-3.41-3.63-3.22-3.73-5.22-8.57-6.46-13.34-.9-3.43-1.7-6.96-1.73-10.53,.08-3.18,.05-6.45,.61-9.65ZM108.84,204.96c-6.67-6.51-24.93-28.5-26.08-38.78-1.13-10.12-.34-22.34,8.85-32.83,6.3-7.19,16.12-16.48,31.21-15.09,8.85,.81,15.78,4.29,22.91,9.7,7.69,5.83,14.19,12.85,19.47,23.56-7.31,7.4-16.35,14.24-23.71,21.55l-32.64,31.9Zm101.39,102.08c-.29,5.31-1.62,10.84-3.56,15.82-1.05,2.92-2.31,5.28-4.05,7.85-1.55,2.27-3.51,3.98-5.57,5.69-2.53,2.02-6.81,3.33-9.89,3.34-1.35,.05-2.7-.09-3.96-.24-.1-.09-.29-.09-.48-.08-.97-.16-2.14-.5-3.21-.94-1.66-.61-3.33-1.51-4.82-2.71-.1,0-.2-.09-.3-.18-.49-.27-.99-.64-1.38-1.01-1.89-1.76-3.98-3.51-5.31-5.77-1.44-2.45-3.07-4.99-3.75-7.76-.69-2.96-1.66-5.81-1.58-8.89s.06-6.26,.62-9.26c.97-5.04,2.23-10.09,4.08-14.88,1.93-5.08,5.02-10,9.73-13.06,2.92-1.84,6.25-2.92,9.51-3.14,4.52-.17,9.1,1.3,12.67,4.35,1.49,1.29,2.7,2.69,4,4.09,.6,.55,1.1,1.21,1.61,1.96,1.33,2.17,2.77,4.62,3.54,7.19,.78,2.86,1.65,5.72,1.95,8.59,.4,2.97,.31,5.95,.14,9.04Zm89.15,60.56c-.46,.6-.92,1.09-1.38,1.69-4.77,6.34-9.45,12.86-14.13,19.19-1.29,1.68-2.68,2.99-4.78,3.54-2.1,.46-4.33,.16-6.1-.93-1.77-1.09-2.99-2.78-3.54-4.78-.46-1.91-.26-4.42,.93-6.1,3.85-5.24,7.7-10.48,11.56-15.73,1.93-2.57,4.05-5.06,6.07-7.63,.73-.99,1.57-1.88,2.4-2.88,.53-.69,1.14-1.3,1.78-1.85-.34-5.62-.69-11.23-1.09-16.83-.17-.04-.35-.06-.52-.1-5.34-1.25-10.88-2.68-15.6-5.49-3.05-1.81-5.62-3.74-7.85-6.65-2.22-2.9-3.3-5.94-3.72-9.59-.44-4.22,1.1-9.47,3.97-12.66,1.3-1.4,2.59-2.79,4.1-3.81,.94-.61,1.88-1.22,2.92-1.74,4.21-3.23,9.26-4.86,14.42-5.82,1.91-.36,3.83-.62,5.85-.7,7.6-.28,15.36,1.46,22.49,4.09,6.34,2.37,11.9,6.78,14.15,13.25,1.5,4.28,1.21,9.29-.67,13.41-1.52,3.23-4.29,6.32-7.11,8.35-4.31,3.14-9.14,5.53-14.29,6.78-.81,.2-1.59,.39-2.37,.56,.46,6.43,.84,12.86,1.24,19.31,.71,.57,1.41,1.15,2.11,1.75,1.39,1.2,2.79,2.5,4.18,3.7,1.89,1.57,3.68,3.23,5.47,4.9,4.08,3.7,7.98,7.6,11.97,11.4,3.19,2.97,2.9,8.27-.17,11.17-3.16,3.1-8.08,2.8-11.17-.17-3.59-3.53-7.09-7.06-10.78-10.39-3.48-3.15-6.87-6.2-10.35-9.25Z"/>
  <path class="cls-2" d="M145.73,127.95c-7.13-5.4-14.06-8.88-22.91-9.7-15.08-1.39-24.91,7.91-31.21,15.09-9.19,10.48-9.98,22.71-8.85,32.83,1.15,10.28,19.41,32.27,26.08,38.78l32.64-31.9c7.36-7.31,16.4-14.15,23.71-21.55-5.27-10.71-11.77-17.73-19.47-23.56Z"/>
  <path class="cls-3" d="M208.14,289.4c-.77-2.57-2.21-5.02-3.54-7.19-.51-.75-1.01-1.41-1.61-1.96-1.3-1.4-2.51-2.79-4-4.09-3.58-3.05-8.16-4.51-12.67-4.35-3.27,.22-6.6,1.3-9.51,3.14-4.7,3.06-7.8,7.98-9.73,13.06-1.85,4.78-3.11,9.84-4.08,14.88-.56,3-.54,6.18-.62,9.26s.89,5.94,1.58,8.89c.68,2.77,2.31,5.31,3.75,7.76,1.33,2.26,3.42,4.01,5.31,5.77,.4,.37,.89,.74,1.38,1.01,.1,.09,.2,.19,.3,.18,1.49,1.2,3.16,2.1,4.82,2.71,1.08,.44,2.24,.78,3.21,.94,.19,0,.38-.01,.48,.08,1.26,.14,2.61,.29,3.96,.24,3.08-.02,7.36-1.33,9.89-3.34,2.05-1.71,4.01-3.42,5.57-5.69,1.74-2.57,3-4.92,4.05-7.85,1.94-4.98,3.27-10.51,3.56-15.82,.18-3.09,.26-6.07-.14-9.04-.3-2.88-1.17-5.73-1.95-8.59Z"/>
  <path class="cls-3" d="M385.9,327.19c1.1,1.21,2.21,2.42,3.41,3.63,1.1,1.12,3.57,2.76,4.64,3.2,1.86,.7,3.71,1.4,5.74,1.62,2.61,.29,5.88,.17,8.34-.88,1.42-.63,2.74-1.35,4.06-2.07,1.5-1.02,2.8-2.41,4.1-3.71,.92-1.28,1.73-2.66,2.55-4.04,.54-.98,.99-1.96,1.53-3.04,2.58-5.87,3.39-12.64,2.87-18.97-.2-2.79-1.07-5.54-1.84-8.21-.33-1.14-.76-2.28-1.18-3.33-.34-1.43-.77-2.76-1.31-4.19-2.44-6.27-7.08-12.06-12.98-15.31-2.56-1.45-5.47-2.11-8.26-2.01-1.82,.16-3.35,.41-4.87,.95-3.33,1.08-6.61,3.51-8.53,6.38-1.01,1.29-1.83,2.66-2.45,4.13-.44,1.07-.78,2.24-1.13,3.31-.95,3.02-1.81,5.94-2.27,9.03-.56,3.2-.53,6.47-.61,9.65,.03,3.56,.84,7.09,1.73,10.53,1.23,4.77,3.24,9.6,6.46,13.34Z"/>
  <path class="cls-3" d="M320.51,387.23c3.09,2.97,8.01,3.27,11.17,.17,3.07-2.9,3.36-8.21,.17-11.17-3.99-3.8-7.89-7.7-11.97-11.4-1.79-1.67-3.59-3.33-5.47-4.9-1.39-1.2-2.79-2.49-4.18-3.7-.69-.6-1.39-1.18-2.11-1.75-.4-6.46-.79-12.88-1.24-19.31,.78-.17,1.56-.36,2.37-.56,5.15-1.25,9.98-3.64,14.29-6.78,2.81-2.03,5.59-5.11,7.11-8.35,1.87-4.11,2.17-9.13,.67-13.41-2.26-6.46-7.81-10.88-14.15-13.25-7.12-2.63-14.89-4.37-22.49-4.09-2.02,.07-3.94,.34-5.85,.7-5.16,.96-10.21,2.59-14.42,5.82-1.04,.52-1.98,1.13-2.92,1.74-1.5,1.02-2.8,2.41-4.1,3.81-2.87,3.18-4.41,8.44-3.97,12.66,.42,3.64,1.5,6.68,3.72,9.59,2.23,2.9,4.8,4.83,7.85,6.65,4.73,2.81,10.26,4.24,15.6,5.49,.17,.04,.35,.06,.52,.1,.4,5.6,.74,11.21,1.09,16.83-.65,.54-1.25,1.16-1.78,1.85-.83,.99-1.66,1.89-2.4,2.88-2.02,2.58-4.15,5.06-6.07,7.63-3.85,5.24-7.71,10.49-11.56,15.73-1.19,1.68-1.39,4.19-.93,6.1,.55,2,1.77,3.69,3.54,4.78,1.77,1.09,4,1.39,6.1,.93,2.1-.56,3.49-1.86,4.78-3.54,4.68-6.33,9.35-12.85,14.13-19.19,.46-.59,.92-1.09,1.38-1.69,3.48,3.05,6.87,6.1,10.35,9.25,3.68,3.33,7.18,6.86,10.78,10.39Z"/>
  <path class="cls-2" d="M472.53,207.31c6.44-7.22,23.77-31.31,24.22-42.04,.45-10.56-1.26-23.17-11.53-33.36-7.04-6.99-17.88-15.91-33.4-13.39-9.1,1.48-16.03,5.58-23.03,11.69-7.55,6.59-13.78,14.33-18.47,25.8,8.1,7.14,17.96,13.57,26.11,20.61l36.1,30.69Z"/>
</svg>