<?xml version="1.0" encoding="UTF-8"?>
<svg id="Layer_2" data-name="Layer 2" xmlns="http://www.w3.org/2000/svg" viewBox="0 0 295.63 297.03">
  <defs>
    <style>
      .cls-1 {
        fill: #e78b67;
      }
    </style>
  </defs>
  <g>
    <path class="cls-1" d="M153.61,253.37c0-7.86,5.33-12.21,14.24-12.21,8.14,0,14.3,4.07,14.3,12.21v11.77c0,2.64-1.76,4.34-4.46,4.34s-4.34-1.7-4.34-4.34v-10.45c0-2.47-1.32-6.1-5.5-6.1s-5.44,3.63-5.44,6.1v10.45c0,2.64-1.71,4.34-4.34,4.34s-4.45-1.7-4.45-4.34v-11.77Z"/>
    <path class="cls-1" d="M75.31,264.41c0-.98,.27-3.66,1.49-11.35l3.19-20.44c.85-5.43,2.97-7.32,6.05-7.32,4.41,0,5.58,3.29,7.38,9.52l4.41,15.31,3.66-13.12c2.28-8.54,3.5-11.71,7.59-11.71,3.56,0,5.52,1.83,6.43,7.32l4.09,26.6c.42,2.62,.58,4.51,.58,5.19,0,2.62-1.75,5.06-4.41,5.06-3.66,0-4.62-2.26-5.31-7.5l-1.56-11.85c-.16-1.25-1.68-1.38-2.01-.18l-3.13,9.66c-.8,2.87-3.31,6.37-6.01,6.37-2.92,0-5.6-3.17-6.45-6.34l-2.17-8.01c-.44-1.61-2.46-1.44-2.69,.23l-1.47,10.75c-.85,6.16-2.81,6.89-5.26,6.89-2.66,0-4.41-2.44-4.41-5.06Z"/>
    <path class="cls-1" d="M125.54,264.36l-.21-32.81c-.02-2.9,2.12-5.16,4.61-5.17l14.08-.09c2.65-.02,4.6,1.91,4.62,4.87s-1.9,4.86-4.55,4.87l-9.06,.06c-.06,0-.11,.05-.11,.12l.04,6.54c0,.07,.05,.12,.11,.12l8.23-.05c2.71-.02,4.6,1.79,4.62,4.87s-1.74,4.85-4.55,4.87l-8.17,.05c-.06,0-.11,.05-.11,.12l.04,6.84c0,.07,.05,.12,.11,.12l9.07-.06c2.92-.02,5.3,2.85,4.73,5.98-.42,2.3-2.12,3.74-4.45,3.76l-14.36,.09c-2.48,.02-4.65-2.21-4.67-5.12Z"/>
    <path class="cls-1" d="M186.22,251.05l-.22-20.86c-.04-3.36,1.9-5.39,4.67-5.42s4.75,1.96,4.78,5.32l.22,20.86c.05,4.82,3.08,8.39,7.69,8.34s7.57-3.62,7.51-8.5l-.22-20.86c-.03-3.29,1.84-5.39,4.67-5.42s4.75,1.96,4.78,5.32l.22,20.86c.11,10.74-6.38,18.67-16.91,18.79-10.32,.11-17.08-7.63-17.19-18.43Z"/>
  </g>
  <g>
    <path class="cls-1" d="M218.13,139.44c0-14.55-11.85-26.38-26.38-26.38s-26.4,11.85-26.4,26.38,10.9,25.4,24.65,26.3c-11.52,12.22-26.18,27.2-32.34,31.29-4.16,2.76-8.32,2.33-10.42,1.83-1.33-.33-3.81-1.43-8.09-4.91-1.98-1.6-3.96-3.43-6.09-5.59l-9.77-9.89c-7.82-7.41-12.5-13.15-15.91-17.33-.95-1.18-1.8-2.23-2.63-3.18-12.5-14.7-16.88-26.35-14.23-37.72,2.05-8.82,7.62-16.18,15.21-20.19,8.62-4.53,18.14-3.96,28.31,1.78,8.12,4.56,13.58,10.77,13.6,10.82,.9,1.03,2.18,1.63,3.53,1.68,1.38,.1,2.68-.5,3.61-1.5,10.45-11,20.64-16.11,30.28-15.18,14.05,1.35,23,15.21,23.1,15.38,1.43,2.25,4.38,2.93,6.66,1.5,2.25-1.43,2.93-4.41,1.53-6.66-.45-.73-11.47-17.96-30.26-19.84-11.6-1.15-23.3,3.76-34.79,14.6-2.78-2.58-7.01-6.09-12.27-9.09-13.1-7.46-26.18-8.17-37.82-2.03-10.07,5.31-17.41,15-20.11,26.55-3.38,14.45,1.8,29.13,16.28,46.17,.78,.9,1.58,1.9,2.48,3.03,3.58,4.41,8.47,10.45,16.63,18.16l9.64,9.77c2.38,2.4,4.61,4.46,6.86,6.29,4.63,3.78,8.54,6.01,11.95,6.81,1.38,.33,3.26,.65,5.46,.65,3.61,0,8.07-.83,12.52-3.81,11.47-7.62,43.96-43.39,46.34-46.02,5.39-4.83,8.79-11.82,8.79-19.61l.08-.05Zm-42.76,0c0-9.02,7.34-16.36,16.38-16.36s16.36,7.34,16.36,16.36-7.34,16.36-16.36,16.36-16.38-7.34-16.38-16.36Z"/>
    <path class="cls-1" d="M150.87,91.6c19.39,0,35.17-15.78,35.17-35.17s-15.78-35.17-35.17-35.17-35.17,15.78-35.17,35.17,15.78,35.17,35.17,35.17Zm0-60.67c14.05,0,25.5,11.45,25.5,25.5s-11.45,25.5-25.5,25.5-25.5-11.45-25.5-25.5,11.45-25.5,25.5-25.5Z"/>
  </g>
</svg>