<?xml version="1.0" encoding="UTF-8"?>
<svg id="Self-care" xmlns="http://www.w3.org/2000/svg" viewBox="0 0 612 792">
  <defs>
    <style>
      .cls-1 {
        fill: none;
      }

      .cls-2 {
        fill: #ee1c4e;
      }

      .cls-3 {
        fill: #b67c65;
      }

      .cls-4 {
        fill: #c5846b;
      }

      .cls-5 {
        fill: #422717;
      }

      .cls-6 {
        fill: #6cc3bd;
        opacity: .4;
      }
    </style>
  </defs>
  <ellipse class="cls-6" cx="309.72" cy="340.77" rx="252.85" ry="229.13"/>
  <g>
    <path class="cls-1" d="M353.78,287.44c-.01,.54-.02,1.07-.04,1.6,0,0,0,0,0,0,.01-.53,.02-1.07,.04-1.6,0,0,0,0,0,0Z"/>
    <path class="cls-1" d="M374.25,304.56c.38-.36,.74-.74,1.11-1.1-.37,.37-.73,.74-1.11,1.1Z"/>
    <path class="cls-1" d="M371.56,306.33c.51-.25,1.01-.52,1.5-.78,.42-.29,.81-.63,1.19-.98-.38,.36-.77,.7-1.19,.98-.49,.27-.99,.53-1.5,.78Z"/>
    <path class="cls-1" d="M379.27,292.89c.11-1.36,.11-2.73,0-4.07,0-.09-.03-.18-.03-.27,0,.09,.03,.18,.03,.27,.11,1.33,.11,2.7,0,4.07Z"/>
    <path class="cls-1" d="M376.52,301.65c.09-.15,.19-.31,.28-.46,.31-.55,.56-1.1,.86-1.71-.3,.61-.56,1.16-.86,1.71-.09,.15-.19,.31-.28,.46Z"/>
    <path class="cls-1" d="M354.55,294.3c-.39-1.56-.71-3.14-.78-4.75,.07,1.6,.39,3.19,.78,4.75Z"/>
    <path class="cls-1" d="M234.34,203.74c-4.11,4.16-9.19,8-13.32,12.11l-18.34,17.92c-3.75-3.66-14.01-16.01-14.65-21.79-.12-1.07-.2-2.17-.22-3.31,.02,1.14,.1,2.25,.22,3.31,.65,5.78,10.91,18.13,14.65,21.79h0s18.34-17.92,18.34-17.92c4.14-4.11,9.21-7.95,13.32-12.11,0,0,0,0,0-.01Z"/>
    <path class="cls-1" d="M366.03,307.19c-1.11-.13-2.14-.51-3.16-.9,1.02,.39,2.05,.77,3.16,.9Z"/>
    <path class="cls-1" d="M252.25,307.62c-1.42,1.13-3.83,1.87-5.56,1.88-.76,.03-1.52-.06-2.22-.13-.06-.05-.16-.04-.27-.04-.54-.09-1.2-.28-1.8-.53-.93-.34-1.87-.85-2.71-1.52-.06,0-.11-.05-.17-.1-.28-.15-.55-.36-.78-.57-1.06-.99-2.24-1.97-2.98-3.24-.81-1.38-1.72-2.8-2.11-4.36-.39-1.66-.93-3.26-.89-4.99,.04-1.73,.03-3.52,.35-5.2,.06-.34,.14-.67,.21-1.01,0,0,0,0,0,0-.07,.34-.15,.68-.21,1.02-.31,1.69-.3,3.47-.35,5.2-.04,1.73,.5,3.33,.89,4.99,.38,1.56,1.3,2.98,2.11,4.36,.75,1.27,1.92,2.25,2.98,3.24,.22,.21,.5,.42,.78,.57,.06,.05,.11,.1,.17,.1,.84,.67,1.78,1.18,2.71,1.52,.6,.25,1.26,.44,1.8,.53,.11,0,.21,0,.27,.04,.71,.08,1.47,.16,2.22,.13,1.73,0,4.14-.74,5.56-1.88,1.04-.86,2.02-1.74,2.84-2.82-.82,1.09-1.81,1.96-2.84,2.82Z"/>
    <path class="cls-1" d="M289.53,294.74c.24,2.05,.84,3.76,2.09,5.39,.49,.63,1.01,1.17,1.56,1.66-2.47-2.52-3.69-5.62-3.64-8.65-.05,.55-.05,1.09,0,1.6Z"/>
    <path class="cls-1" d="M407.02,235.1l-20.28-17.24c-4.58-3.95-10.12-7.57-14.67-11.58,0,0,0,0,0,0,4.55,4.01,10.09,7.62,14.67,11.58l20.28,17.24c3.62-4.06,13.35-17.59,13.61-23.62,0-.07,0-.13,0-.2,0,.06,0,.13,0,.19-.25,6.03-9.99,19.56-13.61,23.62Z"/>
    <path class="cls-3" d="M391.86,408.74c.01,12.3-5.25,26.11-15.7,41.28-4.17-2.87-8.94-4.81-13.98-5.74-8.83-1.63-18.48-.16-27.12,4.83-15.5,8.95-22.81,26.37-18.78,41.91,.75,2.88,1.89,5.69,3.44,8.38,1.03,1.79,2.21,3.45,3.5,4.97,5.91,6.95,14.33,11.14,23.4,12.12h.01c3.04,.34,6.15,.31,9.27-.1,.02,0,.03,0,.04-.01,.8-.05,1.59-.13,2.37-.2,.32-.03,.65-.07,.97-.11,.42-.05,.84-.1,1.26-.15,.46-.06,.91-.12,1.36-.19,.19-.03,.38-.06,.57-.09,24.92-3.85,42.61-19.06,52.64-30.4,3.63-4.1,6.49-8.78,8.47-13.81,0,0,.01-.02,.01-.02h0c1.84-4.65,2.93-9.6,3.15-14.66,0-.05,0-.11,0-.16,1.12-25.71-7.14-53.92-36.81-77.87-1.63,1.28-3.31,2.5-5.02,3.68,4.51,7.78,6.93,16.82,6.94,26.35Z"/>
    <path class="cls-3" d="M438.01,211.82c-.28-3.07-.83-6.24-1.75-9.4-.94-3.37-2.57-6.61-3.85-9.05-1.46-2.76-3.49-5.22-5.41-7.48-1.81-2.1-3.66-3.87-5.77-5.47-2.95-2.27-6.56-4.79-10.56-6.37-1.98-.79-4.12-1.63-6.46-2.09-.54-.09-1.14-.23-1.85-.31-3.93-.99-7.94-1.39-12-1.24-14.91,.54-28.3,8.61-35.78,21.53l-.42,.56-.41,.56c-1.39,1.94-2.55,4.2-3.38,6.67-6.47-2.31-11.93-3.89-17.17-5-3.93-.83-8.01-1.49-12.18-1.83-.54-.03-1.14-.07-1.68-.1l-.33-.04c-.71-.08-1.41-.16-2.12-.25-5.11-.62-10.52-.75-17.65-.49-.97,.03-1.94,.07-2.92,.11-1.19,.04-2.38,.14-3.56,.24-.97-.02-1.89,.02-2.87,0h-.27c-.33,.02-.6,.03-.92,.04-6.21,.22-12.88,1.22-20.87,3.2-2.25,.57-4.55,1.25-6.85,1.98-1.09-3.26-2.6-6.02-4.64-8.43l-.45-.52c-1.36-1.62-2.83-3.41-4.46-4.92-1.68-1.56-3.51-2.9-5.29-4.14-2.78-1.96-5.87-3.62-9.27-4.91-4.01-1.64-7.96-3.06-12.35-3.66-4.19-.6-7.39-.81-10.36-.7-.7,.03-1.4,.05-2.16,.13-3.02,.33-5.33,.68-7.42,1.24-2.35,.68-4.48,1.68-6.29,2.56-3.93,1.93-7.29,4.7-10.07,7.13-1.94,1.75-3.71,3.65-5.35,5.88-1.75,2.44-3.6,5.05-4.85,7.85-1.15,2.53-2.49,5.88-3.17,9.31-.64,3.27-1.01,6.47-1.01,9.56-.02,3.79,.54,7.39,1.07,10.07,.53,2.74,1.21,5.1,2.05,7.23,1.49,3.68,2.94,6.55,4.6,9.02,1.89,2.8,3.87,5.32,5.95,7.46,1.24,1.25,2.58,2.56,3.98,3.8-.96,1.93-1.91,4.02-2.8,6.32-3.02,7.68-4.77,14.56-5.46,20.91-.48,4.56-.7,9.06-.54,13.27-.03,.7-.06,1.41-.08,2.06-.06,2.76-.09,5.03,.04,7.08,.16,2.75,.4,5.12,.65,7.28,.2,3.99,.68,8.25,1.49,12.6,1.15,6.29,3.45,13.02,6.97,20.46,2.99,6.33,6.94,12.46,11.75,18.23,4.02,4.78,8.89,9.3,15.95,14.67,3.51,2.67,7.35,5.17,11.53,7.51,.77,.43,1.55,.85,2.34,1.27,1.03-1.86,2.18-3.66,3.45-5.38,1.26-1.71,2.64-3.34,4.12-4.88,8.06-8.34,18.72-13.39,30.42-14.52,1.65-.15,3.32-.23,5-.23,6.28,0,12.87,1.64,19.59,4.89,2.95,1.41,5.87,3.12,8.71,5.08,1.62,1.12,3.21,2.32,4.74,3.59,5.78-4.74,18.5-13.56,33.05-13.56,13.65,0,26.23,5.24,35.4,14.76,2.75,2.85,5.12,6.02,7.1,9.42,1.71-1.18,3.39-2.4,5.02-3.68,21.38-16.73,35.74-42.04,37.9-70.96,.49-4.29,.66-8.67,.5-13-.43-11.66-3.17-23.09-8.11-33.83-.66-1.81-1.38-3.68-2.2-5.55,3.52-2.99,6.44-5.92,8.82-8.87,1.87-2.29,3.71-4.95,5.39-7.88,1.53-2.6,2.77-5.56,3.93-9.34,.67-2.19,1.19-4.58,1.52-7.35,.33-2.77,.63-6.4,.33-10.12Zm-235.32,21.96h0c-3.75-3.66-14.01-16.02-14.65-21.79-.12-1.07-.2-2.18-.22-3.31-.08-4.92,1-10.35,5.19-15.14,3.54-4.03,9.06-9.26,17.53-8.48,4.97,.46,8.87,2.42,12.87,5.45h0c4.33,3.27,7.98,7.21,10.94,13.23h0s0,0,0,.01c-4.11,4.16-9.19,8-13.32,12.11l-18.34,17.92Zm61.93,53.81c-1.78,1.04-3.85,.36-5.02-1.2,.18,1.56,.14,3.12,.05,4.74-.16,2.98-.91,6.09-2,8.89-.59,1.65-1.3,2.97-2.28,4.41-.09,.13-.2,.25-.29,.38-.82,1.09-1.8,1.96-2.84,2.82-1.42,1.13-3.83,1.87-5.56,1.88-.76,.03-1.52-.05-2.22-.13-.06-.05-.16-.05-.27-.04-.54-.09-1.2-.28-1.8-.53-.93-.34-1.87-.85-2.71-1.52-.06,0-.11-.05-.17-.1-.28-.15-.56-.36-.78-.57-1.06-.99-2.24-1.97-2.98-3.24-.81-1.38-1.72-2.8-2.11-4.36-.39-1.66-.93-3.26-.89-4.99,.04-1.73,.03-3.52,.35-5.2,.07-.34,.14-.68,.21-1.02-.15-.06-.3-.11-.43-.19-1.83-1.07-2.25-3.32-1.35-5.13,.52-1.03,1.16-2.01,1.83-2.95,2.97-4.18,7.09-8.26,12.35-9.18,8.92-1.55,15.64,5.4,20.26,12.13,1.15,1.68,.31,4.16-1.35,5.13Zm83.77-5.13c.52-1.03,1.16-2.01,1.83-2.95,2.97-4.18,7.09-8.26,12.35-9.18,8.92-1.55,15.64,5.4,20.26,12.13,1.15,1.68,.31,4.16-1.35,5.13-.75,.44-1.54,.56-2.3,.45,.02,.17,.05,.34,.06,.51,0,.09,.03,.18,.03,.27,.11,1.33,.11,2.7,0,4.07-.19,2.27-.71,4.53-1.61,6.59-.3,.61-.55,1.16-.86,1.71-.09,.15-.19,.31-.28,.46-.37,.62-.74,1.23-1.16,1.81-.37,.37-.73,.74-1.11,1.1s-.77,.7-1.19,.98c-.49,.27-.99,.53-1.5,.78-.26,.13-.51,.26-.78,.38-1.38,.59-3.22,.66-4.69,.49-.02,0-.04,0-.06-.01-1.11-.13-2.14-.51-3.16-.9-.3-.12-.8-.42-1.3-.76-.25-.17-.5-.35-.73-.53-.23-.18-.43-.35-.58-.51-.67-.68-1.3-1.36-1.92-2.04h0c-1.81-2.1-2.94-4.81-3.63-7.49-.06-.22-.11-.44-.16-.66-.39-1.55-.71-3.14-.78-4.75,0-.17-.03-.34-.03-.51,0,0,0,0,0,0,0,0,0,0,0,0,.01-.53,.02-1.07,.04-1.6-1.18,.78-2.84,.86-4.04,.15-1.83-1.07-2.25-3.32-1.35-5.13Zm-55.16,2.62s12.84-11.37,29.36-1.25c3.67,2.25,6.09,6.2,6.21,10.54,.13,4.92-2.52,10.61-14.22,12.43,.02,.15,.04,.3,.06,.46l.61,7.08c.13,1.49,.79,2.86,1.83,3.71,2.48,2.04,7.35,4.87,11.64,.41,.98-1.01,2.28-1.53,3.55-1.21,1.42,.35,2.59,1.4,.79,4.31-2.93,4.72-11.25,9.12-19.1,3.22-1.57-1.18-3.59-.94-4.99,.49-2.93,3.01-8.5,3.48-15.61-.88-.94-.57-3.03-2.67-3.63-3.7-.59-1.01-.18-4.11,2.02-3.16,4.01,1.72,14.51,4.15,13.95-2.41-.21-2.51-.42-4.88-.59-6.87-.03-.4-.03-.79,.01-1.17-5.36-.62-9.35-2.64-11.95-5.3-.55-.5-1.07-1.03-1.56-1.66-1.25-1.63-1.85-3.34-2.09-5.39-.05-.51-.05-1.05,0-1.6,.04-2.94,1.27-5.82,3.71-8.06Zm127.39-73.59c-.25,6.03-9.99,19.56-13.61,23.62l-20.28-17.24c-4.58-3.96-10.12-7.57-14.67-11.58,0,0,0,0,0,0,0,0,0,0,0,0,2.63-6.44,6.14-10.79,10.38-14.5,3.93-3.43,7.83-5.74,12.94-6.57,8.72-1.42,14.81,3.6,18.77,7.52,5.71,5.66,6.71,12.66,6.48,18.55,0,.07,0,.13,0,.2Z"/>
    <path class="cls-4" d="M202.69,233.77l18.34-17.92c4.14-4.11,9.21-7.95,13.32-12.11h0c-2.96-6.02-6.61-9.96-10.94-13.24h0c-4.01-3.03-7.9-4.98-12.87-5.44-8.47-.78-14,4.44-17.53,8.48-4.2,4.78-5.27,10.22-5.19,15.14,.02,1.14,.1,2.24,.22,3.31,.65,5.78,10.91,18.13,14.65,21.79Z"/>
    <path class="cls-3" d="M245.84,278.05c-.15,.05-.3,.1-.31,.13,0,.02,.16-.06,.31-.13Z"/>
    <path class="cls-3" d="M259.5,286.25c-1.39-2.02-2.84-3.85-4.71-5.58-.32-.3-.66-.58-.99-.86-.04-.02-.55-.42-.69-.51-.71-.48-1.47-.85-2.22-1.25,.89,.47-.23-.07-.53-.16-.27-.08-.54-.15-.81-.21-.12-.03-.24-.04-.36-.07-.18-.01-.37-.03-.55-.04-.32,0-.65,.01-.97,.02-.03,0-.05,0-.07,0-.5,.1-.99,.22-1.47,.38-.02,0-.12,.04-.23,.07-.21,.11-.43,.2-.65,.32-.45,.24-.88,.5-1.3,.78-.14,.09-1,.66-.43,.29,.57-.36-.2,.17-.32,.27-.37,.32-.73,.65-1.08,.99-.69,.68-1.3,1.41-1.92,2.14,0,0,0,0-.01,.02-.11,.15-.22,.3-.32,.45-.22,.31-.44,.63-.65,.95-.42,.65-.83,1.31-1.18,2-.84,1.67-3.05,2.21-4.69,1.54-.07,.34-.15,.67-.21,1.01-.31,1.69-.3,3.47-.35,5.2-.04,1.73,.5,3.34,.89,4.99,.38,1.56,1.3,2.98,2.11,4.36,.75,1.27,1.92,2.25,2.98,3.24,.22,.21,.5,.42,.78,.57,.06,.05,.11,.11,.17,.1,.84,.67,1.78,1.18,2.71,1.52,.61,.25,1.26,.44,1.8,.53,.11,0,.21,0,.27,.04,.71,.08,1.47,.16,2.22,.13,1.73-.01,4.14-.75,5.56-1.88,1.03-.86,2.01-1.73,2.84-2.82,.1-.13,.2-.25,.29-.38,.98-1.44,1.69-2.76,2.28-4.41,1.09-2.8,1.84-5.9,2-8.89,.09-1.62,.13-3.18-.05-4.74-.04-.05-.08-.09-.11-.14Z"/>
    <path class="cls-3" d="M362.69,278.05c-.15,.05-.3,.1-.31,.13,0,.02,.16-.06,.31-.13Z"/>
    <path class="cls-3" d="M376.34,286.25c-1.39-2.02-2.84-3.85-4.71-5.58-.32-.3-.66-.58-.99-.86-.04-.02-.55-.42-.69-.51-.71-.48-1.47-.85-2.22-1.25,.89,.47-.23-.07-.53-.16-.27-.08-.54-.15-.81-.21-.12-.03-.24-.04-.36-.07-.18-.01-.37-.03-.55-.04-.32,0-.65,.01-.97,.02-.03,0-.05,0-.07,0-.5,.1-.99,.22-1.47,.38-.02,0-.12,.04-.23,.07-.21,.11-.43,.2-.65,.32-.45,.24-.88,.5-1.3,.78-.14,.09-1,.66-.43,.29,.57-.36-.2,.17-.32,.27-.37,.32-.73,.65-1.08,.99-.69,.68-1.3,1.41-1.92,2.14,0,0,0,0-.01,.02-.11,.15-.22,.3-.32,.45-.22,.31-.44,.63-.65,.95-.42,.65-.83,1.31-1.18,2-.25,.5-.64,.89-1.09,1.19-.01,.54-.02,1.07-.04,1.6,0,0,0,0,0,0,0,.17,.02,.34,.03,.51,.07,1.6,.39,3.19,.78,4.75,.06,.22,.11,.44,.16,.66,.69,2.68,1.82,5.39,3.63,7.49h0c.62,.67,1.24,1.35,1.92,2.03,.15,.16,.36,.33,.58,.51,.23,.18,.48,.36,.73,.53,.5,.34,1,.63,1.3,.76,1.02,.39,2.05,.77,3.16,.9,.02,0,.04,0,.06,.01,1.47,.16,3.3,.1,4.69-.49,.27-.12,.52-.25,.78-.38,.51-.25,1.01-.52,1.5-.78,.42-.29,.81-.63,1.19-.98,.38-.36,.74-.74,1.11-1.1,.41-.58,.79-1.19,1.16-1.81,.09-.15,.19-.31,.28-.46,.3-.55,.56-1.1,.86-1.71,.91-2.06,1.42-4.32,1.61-6.59,.11-1.36,.11-2.73,0-4.07,0-.09-.02-.18-.03-.27-.02-.17-.04-.34-.06-.51-1.11-.15-2.15-.81-2.83-1.8Z"/>
    <path class="cls-4" d="M414.15,192.74c-3.96-3.93-10.05-8.94-18.77-7.52-5.11,.83-9.01,3.13-12.94,6.57-4.24,3.7-7.74,8.05-10.38,14.5,0,0,0,0,0,0,4.55,4.01,10.09,7.62,14.67,11.58l20.28,17.24c3.62-4.06,13.35-17.59,13.61-23.62,0-.06,0-.13,0-.19,.22-5.89-.78-12.89-6.48-18.55Z"/>
    <path class="cls-2" d="M316.28,491.02c-4.03-15.54,3.28-32.96,18.78-41.91,8.64-4.99,18.29-6.46,27.12-4.83,5.04,.93,9.81,2.87,13.98,5.74,10.45-15.17,15.71-28.98,15.7-41.28-.01-9.53-2.43-18.57-6.94-26.35-1.97-3.41-4.35-6.57-7.1-9.42-9.17-9.52-21.75-14.76-35.4-14.76-14.55,0-27.27,8.82-33.05,13.56-1.53-1.27-3.12-2.47-4.74-3.59-2.84-1.96-5.76-3.67-8.71-5.08-6.72-3.25-13.31-4.89-19.59-4.89-1.68,0-3.35,.08-5,.23-11.7,1.13-22.36,6.18-30.42,14.52-1.48,1.54-2.86,3.17-4.12,4.88-1.27,1.71-2.41,3.51-3.45,5.38-4.21,7.59-6.47,16.33-6.47,25.52,0,10.92,4.14,23.1,12.31,36.24,4.33-2.58,9.28-4.17,14.48-4.71,8.11-.83,16.84,.9,24.79,5.49,15.69,9.06,23.26,26.32,19.26,41.35-.68,2.58-1.71,5.1-3.09,7.49-1.2,2.07-2.6,3.95-4.19,5.64,8.35,6.95,14.2,11.2,14.63,11.51,1.27,.91,2.76,1.4,4.31,1.4s3.07-.49,4.34-1.41c.33-.25,3.97-2.9,9.51-7.37-1.29-1.52-2.47-3.18-3.5-4.97-1.55-2.69-2.69-5.5-3.44-8.38Z"/>
    <path class="cls-5" d="M305.13,307.09c-.04,.38-.05,.77-.01,1.17,.17,1.98,.38,4.36,.59,6.87,.55,6.56-9.94,4.13-13.95,2.41-2.2-.95-2.62,2.15-2.02,3.16,.6,1.03,2.69,3.13,3.63,3.7,7.11,4.36,12.68,3.89,15.61,.88,1.4-1.43,3.42-1.67,4.99-.49,7.85,5.9,16.17,1.5,19.1-3.22,1.81-2.91,.63-3.95-.79-4.31-1.27-.32-2.57,.2-3.55,1.21-4.29,4.45-9.16,1.62-11.64-.41-1.04-.85-1.7-2.22-1.83-3.71l-.61-7.08c-.01-.16-.03-.31-.06-.46,11.7-1.83,14.35-7.52,14.22-12.43-.12-4.34-2.54-8.29-6.21-10.54-16.52-10.12-29.36,1.25-29.36,1.25-2.44,2.23-3.67,5.11-3.71,8.06-.04,3.03,1.18,6.13,3.64,8.65,2.61,2.66,6.59,4.68,11.95,5.3Z"/>
    <path class="cls-3" d="M297.71,487.11c4-15.03-3.57-32.29-19.26-41.35-7.95-4.59-16.68-6.32-24.79-5.49-5.2,.54-10.15,2.13-14.48,4.71-8.17-13.14-12.31-25.32-12.31-36.24,0-9.19,2.26-17.93,6.47-25.52-.79-.42-1.57-.84-2.34-1.27-.32,.21-.64,.42-.96,.63-18.7,12.13-35.09,36.92-41.75,63.55h0s-.04-.03-.04-.03c0,.02,.01,.05,.03,.09h0s0,0,0,0c-1.68,26.04,3.4,53.2,59.02,62.52l9.27,1.1c2.51,.54,5.03,.84,7.52,.9,10.12,.24,19.74-3.42,26.32-10.46,1.59-1.69,2.99-3.57,4.19-5.64,1.38-2.39,2.41-4.91,3.09-7.49Z"/>
    <path class="cls-5" d="M245.72,270.33c-5.26,.92-9.38,5-12.35,9.18-.67,.94-1.31,1.92-1.83,2.95-.91,1.81-.48,4.06,1.35,5.13,.14,.08,.29,.13,.43,.19,0,0,0,0,0,0,1.65,.67,3.86,.13,4.69-1.54,.35-.69,.76-1.36,1.18-2,.21-.32,.42-.64,.65-.95,.11-.15,.22-.3,.32-.45,0,0,0-.01,.01-.02,.62-.74,1.23-1.47,1.92-2.14,.35-.34,.71-.67,1.08-.99,.12-.1,.89-.63,.32-.27-.57,.36,.3-.2,.43-.29,.42-.28,.85-.54,1.3-.78,.21-.11,.43-.21,.65-.32,.11-.03,.21-.06,.23-.07,.48-.16,.97-.27,1.47-.38,.02,0,.04,0,.07,0,.32,0,.64-.03,.97-.02,.18,0,.37,.03,.55,.04,.12,.03,.24,.04,.36,.07,.27,.06,.54,.13,.81,.21,.3,.09,1.42,.63,.53,.16,.76,.4,1.51,.77,2.22,1.25,.14,.09,.66,.49,.69,.51,.34,.28,.67,.56,.99,.86,1.87,1.73,3.33,3.56,4.71,5.58,.03,.05,.08,.09,.11,.14,1.17,1.56,3.23,2.25,5.02,1.2,1.65-.97,2.5-3.45,1.35-5.13-4.62-6.73-11.34-13.68-20.26-12.13Zm-.18,7.84s.16-.08,.31-.13c-.15,.07-.31,.15-.31,.13Z"/>
    <path class="cls-5" d="M349.74,287.59c1.2,.7,2.87,.63,4.04-.15,0,0,0,0,0,0,.45-.3,.83-.69,1.09-1.19,.35-.69,.76-1.36,1.18-2,.21-.32,.42-.64,.65-.95,.11-.15,.22-.3,.32-.45,0,0,0-.01,.01-.02,.62-.74,1.23-1.47,1.92-2.14,.35-.34,.71-.67,1.08-.99,.12-.1,.89-.63,.32-.27-.57,.36,.3-.2,.43-.29,.42-.28,.85-.54,1.3-.78,.21-.11,.43-.21,.65-.32,.11-.03,.21-.06,.23-.07,.48-.16,.97-.27,1.47-.38,.02,0,.04,0,.07,0,.32,0,.64-.03,.97-.02,.18,0,.37,.03,.55,.04,.12,.03,.24,.04,.36,.07,.27,.06,.54,.13,.81,.21,.3,.09,1.42,.63,.53,.16,.76,.4,1.51,.77,2.22,1.25,.14,.09,.66,.49,.69,.51,.34,.28,.67,.56,.99,.86,1.87,1.73,3.33,3.56,4.71,5.58,.68,.99,1.71,1.64,2.83,1.8,.76,.11,1.56-.02,2.3-.45,1.65-.97,2.5-3.45,1.35-5.13-4.62-6.73-11.34-13.68-20.26-12.13-5.26,.92-9.38,5-12.35,9.18-.67,.94-1.31,1.92-1.83,2.95-.91,1.81-.48,4.06,1.35,5.13Zm12.65-9.42s.16-.08,.31-.13c-.15,.07-.31,.15-.31,.13Z"/>
  </g>
</svg>