<svg xmlns="http://www.w3.org/2000/svg" viewBox="0 0 55.11 74.92"><defs><style>.cls-1{fill:none;}.cls-2{fill:#6864ad;}</style></defs><g id="Layer_2" data-name="Layer 2"><g id="Layer_1-2" data-name="Layer 1"><path class="cls-1" d="M51.11,47.18a6.54,6.54,0,1,0-6.53,6.53A6.54,6.54,0,0,0,51.11,47.18Z"/><circle class="cls-1" cx="28.26" cy="14.04" r="10.18"/><path class="cls-2" d="M55.11,47.18a10.54,10.54,0,0,0-21.07,0,10.38,10.38,0,0,0,9.84,10.5C39.28,62.56,33.43,68.54,31,70.17a5.27,5.27,0,0,1-4.16.73,9.23,9.23,0,0,1-3.23-2,29.8,29.8,0,0,1-2.43-2.23l-3.9-3.95a67.31,67.31,0,0,1-6.35-6.92c-.38-.47-.72-.89-1.05-1.27-5-5.87-6.74-10.52-5.68-15.06a12.17,12.17,0,0,1,6.07-8.06c3.44-1.81,7.24-1.58,11.3.71A22.66,22.66,0,0,1,27,36.48a2,2,0,0,0,1.41.67,1.8,1.8,0,0,0,1.44-.6c4.17-4.39,8.24-6.43,12.09-6.06,5.61.54,9.18,6.07,9.22,6.14a1.93,1.93,0,0,0,3.27-2.06c-.18-.29-4.58-7.17-12.08-7.92-4.63-.46-9.3,1.5-13.89,5.83a27.13,27.13,0,0,0-4.9-3.63c-5.23-3-10.45-3.26-15.1-.81a16,16,0,0,0-8,10.6c-1.35,5.77.72,11.63,6.5,18.43.31.36.63.76,1,1.21a68.44,68.44,0,0,0,6.64,7.25l3.85,3.9a33.86,33.86,0,0,0,2.74,2.51,12.62,12.62,0,0,0,4.77,2.72,9.48,9.48,0,0,0,2.18.26,8.87,8.87,0,0,0,5-1.52c4.58-3,17.55-17.32,18.5-18.37a10.5,10.5,0,0,0,3.51-7.83ZM38,47.18a6.54,6.54,0,1,1,6.54,6.53A6.54,6.54,0,0,1,38,47.18Z"/><path class="cls-2" d="M28.26,28.08a14,14,0,1,0-14-14A14.06,14.06,0,0,0,28.26,28.08Zm0-24.22A10.18,10.18,0,1,1,18.08,14,10.2,10.2,0,0,1,28.26,3.86Z"/></g></g></svg>